####
#
# OBJ File Generated by Meshlab
#
####
# Object F1.obj
#
# Vertices: 166
# Faces: 328
#
####
vn -0.426188 -5.869888 2.037635
v -0.001571 -0.004818 0.025380
vn -0.831052 -5.950407 1.527156
v -0.002077 -0.006044 0.020886
vn 0.426188 -5.869887 2.037635
v 0.001571 -0.004818 0.025380
vn 0.831052 -5.950407 1.527156
v 0.002077 -0.006044 0.020886
vn -0.618836 -6.118138 1.020654
v -0.002354 -0.006592 0.018017
vn 0.618836 -6.118137 1.020654
v 0.002354 -0.006592 0.018017
vn -0.248125 -6.242354 0.468254
v -0.002967 -0.007477 0.010467
vn 0.250208 -6.242085 0.480522
v 0.002967 -0.007477 0.010467
vn -0.365810 -5.317807 -1.943819
v -0.003479 -0.007566 0.007050
vn 0.311600 -5.324544 -1.948943
v 0.003184 -0.007594 0.007077
vn -0.265415 4.027728 2.995506
v -0.001534 0.004066 0.028678
vn -0.174186 1.220123 6.057302
v -0.001539 0.001803 0.029478
vn 0.265414 4.027729 2.995506
v 0.001534 0.004066 0.028678
vn 0.174187 1.220123 6.057302
v 0.001539 0.001803 0.029478
vn -0.533342 -0.659851 6.104210
v -0.001525 0.000140 0.029529
vn 0.533342 -0.659851 6.104211
v 0.001525 0.000140 0.029529
vn -0.537993 -2.242346 5.728409
v -0.001528 -0.001183 0.029203
vn 0.537993 -2.242346 5.728409
v 0.001528 -0.001183 0.029203
vn -0.703993 -3.259713 5.167584
v -0.001535 -0.002398 0.028587
vn 0.703993 -3.259713 5.167585
v 0.001535 -0.002398 0.028587
vn -0.524889 -4.504555 4.204987
v -0.001544 -0.003362 0.027780
vn 0.524889 -4.504555 4.204987
v 0.001544 -0.003362 0.027780
vn -0.765756 -5.129122 3.264328
v -0.001557 -0.004263 0.026625
vn 0.765756 -5.129122 3.264328
v 0.001557 -0.004263 0.026625
vn 1.304409 -0.081670 -2.298664
v 0.008834 0.000274 0.004547
vn 6.241884 -0.397963 0.387829
v 0.008621 -0.002091 0.008258
vn 6.189439 0.673063 0.446814
v 0.008429 0.001405 0.010990
vn 0.914325 -0.196004 -1.653501
v 0.008789 0.002275 0.004031
vn 6.198606 -0.530127 0.646484
v 0.008321 -0.001901 0.012358
vn 6.156508 0.724722 0.665883
v 0.007828 0.001405 0.017652
vn 6.161899 -0.685872 0.730982
v 0.007826 -0.001191 0.017608
vn 6.154001 -0.633744 0.828357
v 0.007518 -0.000640 0.020473
vn 6.144379 0.403990 1.045208
v 0.007043 0.001405 0.024298
vn 6.157843 -0.276190 1.069830
v 0.007023 0.000428 0.024452
vn -1.627410 3.990898 2.618549
v -0.004301 0.004066 0.027777
vn -0.988225 3.886518 2.865537
v -0.003130 0.004066 0.028398
vn -0.265732 0.405881 -1.381214
v -0.003431 0.006905 0.002271
vn -0.594347 6.226316 0.020768
v -0.002746 0.006905 0.012943
vn -0.650540 6.214888 0.035254
v -0.003172 0.006905 0.007291
vn 0.603628 3.690242 2.864633
v -0.002334 0.006905 0.017309
vn 1.086137 0.475105 -1.775895
v 0.008784 -0.002941 0.003751
vn 5.413848 -2.616465 1.011372
v 0.007260 -0.003544 0.017976
vn 5.724984 -0.366083 2.070565
v 0.006822 0.000497 0.025521
vn 6.042545 -1.411458 0.537291
v 0.008317 -0.003238 0.010644
vn 5.645594 -1.741236 1.593953
v 0.006792 -0.000897 0.024839
vn 5.182692 -3.176304 0.600299
v 0.007909 -0.004397 0.010674
vn 0.573199 -0.180802 -1.469768
v 0.008539 -0.003870 0.003354
vn 4.320377 -3.772964 2.046942
v 0.005352 -0.003210 0.025376
vn 4.023100 -4.502003 1.187504
v 0.005740 -0.005417 0.018157
vn 2.712878 -3.744450 -1.873971
v 0.007729 -0.005318 0.004801
vn 2.223977 -4.379426 -1.774127
v 0.006652 -0.006402 0.005886
vn 2.876834 -4.864619 2.358717
v 0.004236 -0.004047 0.025492
vn 3.147433 -5.192468 0.619204
v 0.005349 -0.006961 0.010618
vn 2.315747 -5.562296 1.221879
v 0.004710 -0.006066 0.018167
vn 1.351295 -5.002401 -1.826240
v 0.005323 -0.007169 0.006653
vn 1.512426 -5.454895 2.303993
v 0.002948 -0.004595 0.025493
vn 1.285109 -6.045642 0.528823
v 0.004193 -0.007370 0.010553
vn 5.538340 1.093377 2.242051
v 0.006629 0.002071 0.025869
vn 5.848986 1.612134 1.121981
v 0.006870 0.002779 0.024276
vn 4.652719 0.267446 3.797657
v 0.005703 0.001444 0.027619
vn 5.364201 2.851169 1.142709
v 0.006363 0.004066 0.024209
vn 4.718171 3.158432 2.225131
v 0.005647 0.004384 0.025892
vn 4.720128 -2.186373 2.963516
v 0.005787 -0.001644 0.026656
vn 4.311399 2.172610 3.662431
v 0.005404 0.003240 0.027319
vn 4.669649 3.948890 1.033896
v 0.005806 0.004894 0.024135
vn 3.004448 0.670576 5.109829
v 0.004516 0.001627 0.028642
vn 3.293864 -1.355292 4.763677
v 0.004527 -0.000580 0.028467
vn 3.268815 -3.346613 3.793386
v 0.004595 -0.002501 0.027341
vn -0.441329 2.857780 0.881777
v 0.005130 0.004823 0.026141
vn 1.627410 3.990898 2.618549
v 0.004301 0.004066 0.027777
vn -0.818250 2.194483 0.684340
v 0.005110 0.005606 0.024043
vn 0.988226 3.886517 2.865537
v 0.003130 0.004066 0.028398
vn 1.117633 1.052483 5.749564
v 0.002310 0.001798 0.029454
vn 1.817119 -1.670328 5.431821
v 0.003091 -0.000846 0.029079
vn 1.753837 -3.983579 4.107572
v 0.003138 -0.003093 0.027729
vn 0.594347 6.226315 0.020768
v 0.002746 0.006905 0.012943
vn -0.603627 3.690240 2.864633
v 0.002334 0.006905 0.017309
vn -1.009249 3.618603 2.269105
v 0.003344 0.006802 0.017846
vn -1.020480 2.688775 1.149378
v 0.004498 0.006329 0.020042
vn 2.372429 5.686142 0.181815
v 0.004849 0.006487 0.013125
vn 0.788961 0.559498 -1.623802
v 0.005433 0.006515 0.003091
vn 0.265732 0.405881 -1.381214
v 0.003431 0.006905 0.002271
vn 0.650539 6.214888 0.035254
v 0.003172 0.006905 0.007291
vn 0.734377 0.781932 -1.986459
v 0.006643 0.005834 0.003474
vn 4.346456 4.343478 0.383015
v 0.006626 0.005294 0.013279
vn 0.508334 0.364199 -1.527349
v 0.007570 0.004979 0.003328
vn 5.667134 2.338675 0.489453
v 0.007814 0.003510 0.013381
vn 0.739418 -0.029065 -1.456656
v 0.008331 0.003803 0.003526
vn -1.434088 -1.154521 -4.758016
v 0.006637 -0.005114 0.004597
vn -0.395480 -0.514529 -4.809998
v 0.005137 -0.005398 0.004881
vn 0.395584 -0.514668 -4.809852
v -0.005137 -0.005398 0.004881
vn 0.483973 2.732137 3.038944
v -0.001239 0.004066 0.017138
vn 2.137663 2.478592 2.057435
v -0.003717 0.004066 0.018224
vn -0.483971 2.732137 3.038945
v 0.001239 0.004066 0.017138
vn -2.137587 2.478816 2.057610
v 0.003717 0.004066 0.018224
vn 2.909122 2.769162 1.077883
v -0.004387 0.004066 0.019537
vn -2.909235 2.769435 1.077696
v 0.004387 0.004066 0.019537
vn 3.102939 2.948833 0.437240
v -0.004944 0.004066 0.022302
vn -3.102940 2.948833 0.437240
v 0.004944 0.004066 0.022302
vn 3.124200 3.055414 -0.065454
v -0.005130 0.004066 0.024884
vn -3.124200 3.055414 -0.065454
v 0.005130 0.004066 0.024884
vn -0.899428 -4.237155 -4.138989
v 0.005137 0.005656 0.004392
vn 0.899428 -4.237155 -4.138989
v -0.005137 0.005656 0.004392
vn -1.126615 -2.166850 -5.285110
v 0.005137 0.002824 0.006487
vn 1.126615 -2.166850 -5.285110
v -0.005137 0.002824 0.006487
vn -1.239159 0.314842 -5.644164
v 0.005137 -0.000652 0.007057
vn 1.239159 0.314842 -5.644164
v -0.005137 -0.000652 0.007057
vn -1.050762 2.744290 -5.205768
v 0.005137 -0.004004 0.005978
vn 1.050757 2.744288 -5.205772
v -0.005137 -0.004004 0.005978
vn -3.189024 -1.999338 -4.501848
v 0.007258 0.002833 0.005517
vn -3.290327 1.188050 -4.685825
v 0.007258 -0.001976 0.005927
vn 3.290327 1.188047 -4.685826
v -0.007258 -0.001976 0.005927
vn 3.189024 -1.999338 -4.501848
v -0.007258 0.002833 0.005517
vn -1.304409 -0.081670 -2.298664
v -0.008834 0.000274 0.004547
vn 1.009288 3.618695 2.269037
v -0.003344 0.006802 0.017846
vn 1.434085 -1.154526 -4.758027
v -0.006637 -0.005114 0.004597
vn -6.189439 0.673063 0.446814
v -0.008429 0.001405 0.010990
vn -0.739418 -0.029065 -1.456656
v -0.008331 0.003803 0.003526
vn -5.667133 2.338675 0.489453
v -0.007814 0.003510 0.013381
vn 1.020416 2.688893 1.149518
v -0.004498 0.006329 0.020042
vn -0.508334 0.364199 -1.527349
v -0.007570 0.004979 0.003328
vn -4.346455 4.343478 0.383015
v -0.006626 0.005294 0.013279
vn -0.734377 0.781932 -1.986459
v -0.006643 0.005834 0.003474
vn -0.788961 0.559499 -1.623802
v -0.005433 0.006515 0.003091
vn -2.372429 5.686143 0.181815
v -0.004849 0.006487 0.013125
vn -1.753837 -3.983579 4.107572
v -0.003138 -0.003093 0.027729
vn -1.817119 -1.670328 5.431821
v -0.003091 -0.000846 0.029079
vn -1.117632 1.052484 5.749564
v -0.002310 0.001798 0.029454
vn 0.818250 2.194483 0.684340
v -0.005110 0.005606 0.024043
vn 0.441329 2.857780 0.881777
v -0.005130 0.004823 0.026141
vn -3.268816 -3.346614 3.793386
v -0.004595 -0.002501 0.027341
vn -3.293864 -1.355292 4.763677
v -0.004527 -0.000580 0.028467
vn -3.004448 0.670576 5.109829
v -0.004516 0.001627 0.028642
vn -4.669649 3.948890 1.033896
v -0.005806 0.004894 0.024135
vn -4.311400 2.172610 3.662431
v -0.005404 0.003240 0.027319
vn -4.720128 -2.186373 2.963516
v -0.005787 -0.001644 0.026656
vn -4.652719 0.267446 3.797657
v -0.005703 0.001444 0.027619
vn -4.718171 3.158432 2.225131
v -0.005647 0.004384 0.025892
vn -5.364201 2.851170 1.142709
v -0.006363 0.004066 0.024209
vn -5.848986 1.612134 1.121981
v -0.006870 0.002779 0.024276
vn -5.538341 1.093377 2.242051
v -0.006629 0.002071 0.025869
vn -1.284464 -6.045659 0.532536
v -0.004193 -0.007370 0.010553
vn -1.512426 -5.454895 2.303993
v -0.002948 -0.004595 0.025493
vn -1.365850 -4.999166 -1.836415
v -0.005323 -0.007169 0.006653
vn -2.315747 -5.562296 1.221879
v -0.004710 -0.006066 0.018167
vn -3.147433 -5.192469 0.619204
v -0.005349 -0.006961 0.010618
vn -2.876834 -4.864619 2.358717
v -0.004236 -0.004047 0.025492
vn -2.223953 -4.379415 -1.774138
v -0.006652 -0.006402 0.005886
vn -2.712884 -3.744452 -1.873968
v -0.007729 -0.005318 0.004801
vn -4.023100 -4.502003 1.187504
v -0.005740 -0.005417 0.018157
vn -4.320377 -3.772964 2.046942
v -0.005352 -0.003210 0.025376
vn -0.573195 -0.180804 -1.469764
v -0.008539 -0.003870 0.003354
vn -5.182692 -3.176304 0.600299
v -0.007909 -0.004397 0.010674
vn -5.645594 -1.741236 1.593953
v -0.006792 -0.000897 0.024839
vn -6.042546 -1.411458 0.537291
v -0.008317 -0.003238 0.010644
vn -5.724984 -0.366083 2.070565
v -0.006822 0.000497 0.025521
vn -6.198605 -0.530127 0.646484
v -0.008321 -0.001901 0.012358
vn -5.413849 -2.616465 1.011372
v -0.007260 -0.003544 0.017976
vn -1.086136 0.475105 -1.775895
v -0.008784 -0.002941 0.003751
vn -6.157843 -0.276190 1.069830
v -0.007023 0.000428 0.024452
vn -6.144380 0.403990 1.045208
v -0.007043 0.001405 0.024298
vn -6.154002 -0.633745 0.828357
v -0.007518 -0.000640 0.020473
vn -6.161899 -0.685872 0.730982
v -0.007826 -0.001191 0.017608
vn -6.156509 0.724722 0.665883
v -0.007828 0.001405 0.017652
vn -0.914325 -0.196004 -1.653501
v -0.008789 0.002275 0.004031
vn -6.241884 -0.397963 0.387829
v -0.008621 -0.002091 0.008258
# 166 vertices, 0 vertices normals

f 1//1 2//2 3//3
f 4//4 3//3 2//2
f 2//2 5//5 4//4
f 6//6 4//4 5//5
f 5//5 7//7 6//6
f 8//8 6//6 7//7
f 7//7 9//9 8//8
f 10//10 8//8 9//9
f 11//11 12//12 13//13
f 14//14 13//13 12//12
f 12//12 15//15 14//14
f 16//16 14//14 15//15
f 15//15 17//17 16//16
f 18//18 16//16 17//17
f 17//17 19//19 18//18
f 20//20 18//18 19//19
f 19//19 21//21 20//20
f 22//22 20//20 21//21
f 21//21 23//23 22//22
f 24//24 22//22 23//23
f 23//23 1//1 24//24
f 24//24 1//1 3//3
f 27//27 26//26 25//25
f 28//28 27//27 25//25
f 29//29 26//26 27//27
f 30//30 31//31 29//29
f 27//27 30//30 29//29
f 32//32 31//31 30//30
f 30//30 33//33 32//32
f 34//34 32//32 33//33
f 41//41 25//25 26//26
f 42//42 29//29 31//31
f 44//44 41//41 26//26
f 46//46 47//47 41//41
f 44//44 46//46 41//41
f 46//46 44//44 42//42
f 45//45 48//48 42//42
f 49//49 42//42 48//48
f 42//42 49//49 46//46
f 46//46 50//50 47//47
f 51//51 50//50 46//46
f 48//48 52//52 49//49
f 53//53 46//46 49//49
f 46//46 53//53 51//51
f 49//49 54//54 53//53
f 54//54 49//49 52//52
f 55//55 51//51 53//53
f 54//54 52//52 56//56
f 57//57 10//10 55//55
f 53//53 57//57 55//55
f 57//57 53//53 54//54
f 54//54 56//56 3//3
f 54//54 3//3 4//4
f 6//6 54//54 4//4
f 57//57 8//8 10//10
f 57//57 6//6 8//8
f 58//58 34//34 33//33
f 43//43 34//34 58//58
f 33//33 59//59 58//58
f 60//60 43//43 58//58
f 59//59 61//61 58//58
f 62//62 58//58 61//61
f 48//48 45//45 63//63
f 61//61 65//65 62//62
f 66//66 60//60 64//64
f 60//60 67//67 63//63
f 68//68 63//63 67//67
f 63//63 68//68 48//48
f 69//69 70//70 64//64
f 71//71 62//62 65//65
f 64//64 70//70 66//66
f 52//52 48//48 68//68
f 70//70 72//72 66//66
f 66//66 73//73 67//67
f 73//73 66//66 72//72
f 67//67 74//74 68//68
f 74//74 67//67 73//73
f 75//75 68//68 74//74
f 68//68 75//75 52//52
f 56//56 52//52 75//75
f 14//14 73//73 72//72
f 18//18 74//74 16//16
f 74//74 18//18 75//75
f 72//72 13//13 14//14
f 75//75 18//18 20//20
f 22//22 75//75 20//20
f 75//75 22//22 56//56
f 56//56 22//22 24//24
f 3//3 56//56 24//24
f 76//76 77//77 78//78
f 80//80 81//81 82//82
f 80//80 82//82 83//83
f 80//80 83//83 76//76
f 84//84 81//81 80//80
f 85//85 86//86 84//84
f 80//80 85//85 84//84
f 80//80 79//79 71//71
f 85//85 80//80 71//71
f 71//71 65//65 85//85
f 85//85 65//65 61//61
f 87//87 85//85 61//61
f 87//87 88//88 86//86
f 85//85 87//87 86//86
f 61//61 59//59 87//87
f 87//87 59//59 33//33
f 87//87 33//33 30//30
f 27//27 87//87 30//30
f 89//89 50//50 51//51
f 89//89 51//51 55//55
f 90//90 89//89 55//55
f 55//55 10//10 90//90
f 90//90 10//10 9//9
f 91//91 90//90 9//9
f 92//92 93//93 94//94
f 95//95 94//94 93//93
f 93//93 96//96 95//95
f 97//97 95//95 96//96
f 96//96 98//98 97//97
f 99//99 97//97 98//98
f 98//98 100//100 99//99
f 101//101 99//99 100//100
f 100//100 35//35 101//101
f 70//70 101//101 35//35
f 35//35 36//36 70//70
f 72//72 70//70 36//36
f 13//13 72//72 11//11
f 37//37 39//39 82//82
f 83//83 82//82 39//39
f 39//39 38//38 83//83
f 76//76 83//83 38//38
f 38//38 40//40 76//76
f 76//76 40//40 77//77
f 99//99 79//79 97//97
f 79//79 95//95 97//97
f 71//71 79//79 99//99
f 99//99 101//101 71//71
f 94//94 95//95 77//77
f 102//102 104//104 103//103
f 105//105 103//103 104//104
f 104//104 106//106 105//105
f 107//107 105//105 106//106
f 106//106 108//108 107//107
f 109//109 107//107 108//108
f 108//108 90//90 109//109
f 91//91 109//109 90//90
f 110//110 86//86 88//88
f 111//111 110//110 25//25
f 81//81 84//84 102//102
f 102//102 82//82 81//81
f 84//84 86//86 110//110
f 102//102 84//84 110//110
f 102//102 110//110 104//104
f 106//106 104//104 110//110
f 106//106 110//110 111//111
f 111//111 108//108 106//106
f 111//111 89//89 108//108
f 90//90 108//108 89//89
f 110//110 88//88 28//28
f 25//25 110//110 28//28
f 111//111 25//25 41//41
f 111//111 41//41 47//47
f 11//11 72//72 36//36
f 60//60 66//66 67//67
f 34//34 43//43 45//45
f 32//32 34//34 45//45
f 32//32 45//45 42//42
f 31//31 32//32 42//42
f 29//29 42//42 44//44
f 29//29 44//44 26//26
f 69//69 71//71 101//101
f 69//69 101//101 70//70
f 62//62 71//71 69//69
f 62//62 69//69 64//64
f 58//58 62//62 64//64
f 58//58 64//64 60//60
f 6//6 57//57 54//54
f 16//16 74//74 73//73
f 14//14 16//16 73//73
f 27//27 88//88 87//87
f 27//27 28//28 88//88
f 117//117 118//118 165//165
f 117//117 119//119 118//118
f 12//12 128//128 15//15
f 15//15 128//128 127//127
f 5//5 145//145 142//142
f 141//141 137//137 135//135
f 141//141 135//135 138//138
f 138//138 135//135 130//130
f 138//138 130//130 129//129
f 130//130 35//35 100//100
f 130//130 100//100 129//129
f 157//157 155//155 158//158
f 163//163 158//158 162//162
f 162//162 158//158 154//154
f 162//162 154//154 160//160
f 160//160 154//154 156//156
f 137//137 132//132 133//133
f 112//112 152//152 159//159
f 112//112 159//159 114//114
f 114//114 165//165 113//113
f 113//113 165//165 118//118
f 91//91 116//116 109//109
f 112//112 109//109 116//116
f 112//112 107//107 109//109
f 107//107 112//112 113//113
f 107//107 113//113 105//105
f 103//103 105//105 113//113
f 103//103 113//113 123//123
f 123//123 113//113 121//121
f 103//103 124//124 37//37
f 124//124 103//103 123//123
f 112//112 114//114 113//113
f 113//113 118//118 121//121
f 92//92 40//40 93//93
f 115//115 93//93 40//40
f 98//98 129//129 100//100
f 129//129 98//98 120//120
f 120//120 96//96 115//115
f 93//93 115//115 96//96
f 98//98 96//96 120//120
f 144//144 91//91 9//9
f 91//91 144//144 116//116
f 116//116 144//144 148//148
f 116//116 148//148 149//149
f 117//117 164//164 119//119
f 119//119 164//164 161//161
f 119//119 161//161 140//140
f 139//139 119//119 140//140
f 122//122 121//121 119//119
f 119//119 121//121 118//118
f 119//119 139//139 122//122
f 122//122 139//139 134//134
f 129//129 122//122 134//134
f 122//122 129//129 125//125
f 125//125 129//129 120//120
f 125//125 123//123 122//122
f 122//122 123//123 121//121
f 123//123 125//125 124//124
f 125//125 38//38 39//39
f 125//125 39//39 37//37
f 125//125 37//37 124//124
f 38//38 115//115 40//40
f 1//1 23//23 143//143
f 143//143 23//23 21//21
f 126//126 143//143 21//21
f 21//21 19//19 126//126
f 126//126 19//19 17//17
f 36//36 12//12 11//11
f 127//127 126//126 17//17
f 17//17 15//15 127//127
f 12//12 36//36 128//128
f 143//143 126//126 147//147
f 131//131 147//147 126//126
f 126//126 127//127 131//131
f 127//127 128//128 132//132
f 132//132 131//131 127//127
f 128//128 36//36 133//133
f 133//133 132//132 128//128
f 35//35 133//133 36//36
f 147//147 131//131 151//151
f 135//135 133//133 35//35
f 129//129 134//134 138//138
f 130//130 135//135 35//35
f 136//136 151//151 131//131
f 131//131 132//132 136//136
f 137//137 136//136 132//132
f 133//133 135//135 137//137
f 139//139 138//138 134//134
f 151//151 136//136 154//154
f 138//138 139//139 141//141
f 140//140 141//141 139//139
f 137//137 141//141 156//156
f 161//161 141//141 140//140
f 156//156 141//141 160//160
f 141//141 161//161 160//160
f 142//142 7//7 5//5
f 142//142 9//9 7//7
f 5//5 2//2 145//145
f 2//2 1//1 145//145
f 145//145 1//1 143//143
f 142//142 145//145 146//146
f 146//146 144//144 142//142
f 142//142 144//144 9//9
f 145//145 143//143 147//147
f 144//144 146//146 148//148
f 145//145 147//147 150//150
f 150//150 146//146 145//145
f 153//153 148//148 146//146
f 146//146 150//150 153//153
f 151//151 150//150 147//147
f 148//148 153//153 149//149
f 153//153 152//152 149//149
f 158//158 153//153 150//150
f 150//150 151//151 158//158
f 154//154 158//158 151//151
f 153//153 158//158 155//155
f 155//155 159//159 153//153
f 153//153 159//159 152//152
f 157//157 166//166 155//155
f 155//155 166//166 159//159
f 158//158 163//163 157//157
f 159//159 166//166 114//114
f 160//160 161//161 162//162
f 164//164 162//162 161//161
f 162//162 164//164 163//163
f 117//117 157//157 164//164
f 164//164 157//157 163//163
f 157//157 117//117 166//166
f 165//165 114//114 117//117
f 117//117 114//114 166//166
f 92//92 94//94 40//40
f 94//94 77//77 40//40
f 78//78 77//77 95//95
f 78//78 95//95 79//79
f 47//47 89//89 111//111
f 47//47 50//50 89//89
f 116//116 149//149 152//152
f 112//112 116//116 152//152
f 136//136 156//156 154//154
f 136//136 137//137 156//156
f 43//43 60//60 63//63
f 43//43 63//63 45//45
f 76//76 78//78 80//80
f 78//78 79//79 80//80
f 120//120 115//115 125//125
f 38//38 125//125 115//115
f 82//82 102//102 103//103
f 37//37 82//82 103//103
# 328 faces, 0 coords texture

# End of File