####
#
# OBJ File Generated by Meshlab
#
####
# Object TH1_z.obj
#
# Vertices: 59
# Faces: 113
#
####
vn -0.903789 -5.396676 2.440954
v -0.001950 -0.007256 0.029023
vn 1.166508 -3.773444 4.129707
v 0.003336 -0.004682 0.032813
vn 0.795527 -5.510095 2.329827
v 0.001950 -0.007255 0.029022
vn -0.846991 -6.036031 1.086682
v -0.003870 -0.008652 0.022592
vn 1.257928 -5.845615 1.220755
v 0.003869 -0.008649 0.022605
vn -0.787263 -6.118520 0.510298
v -0.002835 -0.009644 0.015660
vn 0.786237 -6.118822 0.514243
v 0.002835 -0.009644 0.015660
vn -0.664048 -5.309446 -1.699205
v -0.003939 -0.009709 0.011084
vn 0.591685 -5.382462 -1.658161
v 0.003855 -0.009718 0.011093
vn -0.625296 3.133570 -2.656509
v -0.004685 0.008864 0.000560
vn -0.798457 6.166623 0.340728
v -0.002854 0.008406 0.015035
vn 0.468708 3.191970 -2.705482
v 0.003389 0.008977 0.000566
vn 0.751496 6.180266 0.318950
v 0.002854 0.008406 0.015035
vn -0.732948 6.180089 0.361238
v -0.002614 0.008192 0.019123
vn 0.680477 6.192390 0.366053
v 0.002614 0.008192 0.019123
vn -1.234243 5.598390 1.477618
v -0.003606 0.007569 0.027432
vn 1.540853 5.288186 1.694439
v 0.003611 0.007568 0.027433
vn 6.223286 0.486818 0.155590
v 0.010585 0.001112 0.010907
vn 3.327452 -2.711917 -1.700542
v 0.010521 -0.004020 0.004703
vn 3.134316 -0.152998 0.141447
v 0.010739 -0.002785 0.003286
vn 2.138341 -0.578499 -2.199962
v 0.010891 -0.000011 0.000095
vn 6.202885 -0.639919 0.317894
v 0.010449 -0.002274 0.013407
vn 6.237076 0.235714 0.520210
v 0.010096 0.000674 0.019253
vn 5.655846 -1.757447 0.972960
v 0.009737 -0.002880 0.022009
vn 5.303801 0.820300 1.805075
v 0.009230 0.001906 0.027658
vn -6.228586 0.467376 0.331941
v -0.010340 0.000894 0.015080
vn -5.895830 -0.841707 1.055788
v -0.009813 -0.001241 0.022921
vn -5.356387 0.626509 1.806242
v -0.008762 0.002295 0.029295
vn -6.204747 -0.593560 0.371514
v -0.010304 -0.002120 0.015797
vn -3.136342 -2.587148 -1.781096
v -0.010535 -0.003971 0.004658
vn -2.122165 -0.573943 -2.140228
v -0.010879 -0.000115 0.000184
vn -3.641379 4.377416 0.291096
v -0.007933 0.007032 0.015289
vn -2.151442 2.289894 -2.299679
v -0.007554 0.007709 0.000603
vn -3.493242 3.485528 1.938148
v -0.007559 0.005446 0.028797
vn -5.790411 2.008218 0.252354
v -0.009997 0.003209 0.015181
vn -4.130280 -3.400832 2.256384
v -0.006634 -0.005045 0.028844
vn -5.510668 -2.525325 0.488790
v -0.009726 -0.005021 0.015964
vn -2.690282 -3.847095 -1.770519
v -0.009145 -0.006632 0.007599
vn -3.291726 -5.025383 0.392799
v -0.006967 -0.008364 0.016021
vn -3.378650 -4.126693 1.166673
v -0.007158 -0.007826 0.022757
vn -1.804363 -4.901919 -1.574822
v -0.006327 -0.009013 0.010458
vn -3.907812 0.799889 3.518054
v -0.007651 0.001701 0.031555
vn -4.107799 -1.660781 3.709455
v -0.006146 -0.002167 0.032466
vn -1.355861 -0.298848 5.117946
v -0.002897 -0.000633 0.034852
vn -1.877142 -3.465993 3.862710
v -0.004149 -0.004405 0.032733
vn 3.453959 -2.652145 3.923548
v 0.005895 -0.003366 0.032305
vn 4.194134 -0.056639 3.002777
v 0.007625 -0.000968 0.031627
vn 1.525610 0.025867 4.759577
v 0.003083 -0.000593 0.034949
vn 3.650508 -3.744633 1.985298
v 0.006530 -0.005633 0.028956
vn 5.373274 -2.687181 0.670339
v 0.009725 -0.005020 0.015976
vn 2.535223 -3.858780 -1.794403
v 0.009032 -0.006778 0.007731
vn 3.380173 -4.874957 0.641552
v 0.006966 -0.008363 0.016034
vn 3.639415 -4.568731 1.132844
v 0.006540 -0.007535 0.022607
vn 1.791179 -4.992521 -1.532707
v 0.006117 -0.009110 0.010545
vn 3.653984 4.174115 0.304105
v 0.008478 0.007008 0.015354
vn 1.981554 2.196489 -2.281071
v 0.007992 0.007400 0.000483
vn 3.872252 3.403941 2.211686
v 0.007788 0.004916 0.027682
vn 5.928665 1.648842 0.270784
v 0.010144 0.003250 0.015183
vn 0.225757 3.242003 3.791631
v 0.000000 0.005246 0.033402
# 59 vertices, 0 vertices normals

f 2//2 1//1 3//3
f 1//1 4//4 3//3
f 5//5 3//3 4//4
f 4//4 6//6 5//5
f 7//7 5//5 6//6
f 6//6 8//8 7//7
f 9//9 7//7 8//8
f 10//10 11//11 12//12
f 13//13 12//12 11//11
f 11//11 14//14 13//13
f 15//15 13//13 14//14
f 14//14 16//16 15//15
f 17//17 15//15 16//16
f 18//18 19//19 20//20
f 21//21 18//18 20//20
f 22//22 19//19 18//18
f 18//18 23//23 22//22
f 24//24 22//22 23//23
f 23//23 25//25 24//24
f 26//26 27//27 28//28
f 29//29 27//27 26//26
f 30//30 29//29 26//26
f 26//26 31//31 30//30
f 32//32 16//16 14//14
f 11//11 32//32 14//14
f 32//32 11//11 10//10
f 10//10 33//33 32//32
f 34//34 16//16 32//32
f 28//28 34//34 32//32
f 32//32 33//33 31//31
f 35//35 32//32 31//31
f 32//32 35//35 28//28
f 35//35 31//31 26//26
f 35//35 26//26 28//28
f 36//36 28//28 27//27
f 37//37 29//29 30//30
f 29//29 37//37 27//27
f 30//30 38//38 37//37
f 39//39 37//37 38//38
f 27//27 40//40 36//36
f 38//38 41//41 39//39
f 1//1 36//36 40//40
f 4//4 1//1 40//40
f 4//4 40//40 39//39
f 39//39 41//41 8//8
f 6//6 39//39 8//8
f 39//39 6//6 4//4
f 42//42 43//43 44//44
f 45//45 44//44 43//43
f 28//28 43//43 42//42
f 43//43 28//28 36//36
f 45//45 43//43 36//36
f 36//36 1//1 45//45
f 34//34 28//28 42//42
f 46//46 47//47 48//48
f 48//48 44//44 45//45
f 2//2 48//48 45//45
f 48//48 2//2 46//46
f 45//45 1//1 2//2
f 33//33 10//10 31//31
f 25//25 49//49 24//24
f 50//50 22//22 24//24
f 22//22 50//50 19//19
f 51//51 19//19 50//50
f 52//52 50//50 24//24
f 50//50 52//52 51//51
f 53//53 24//24 49//49
f 24//24 53//53 52//52
f 52//52 54//54 51//51
f 49//49 3//3 53//53
f 53//53 5//5 52//52
f 5//5 53//53 3//3
f 7//7 9//9 54//54
f 52//52 7//7 54//54
f 7//7 52//52 5//5
f 55//55 56//56 12//12
f 55//55 12//12 13//13
f 17//17 57//57 55//55
f 57//57 25//25 55//55
f 21//21 56//56 55//55
f 55//55 58//58 21//21
f 58//58 55//55 25//25
f 58//58 25//25 23//23
f 18//18 58//58 23//23
f 58//58 18//18 21//21
f 59//59 57//57 17//17
f 48//48 47//47 59//59
f 17//17 16//16 59//59
f 44//44 48//48 59//59
f 42//42 44//44 59//59
f 59//59 16//16 34//34
f 59//59 34//34 42//42
f 25//25 57//57 47//47
f 59//59 47//47 57//57
f 49//49 25//25 47//47
f 47//47 46//46 49//49
f 46//46 2//2 49//49
f 2//2 3//3 49//49
f 31//31 10//10 12//12
f 31//31 12//12 56//56
f 31//31 56//56 21//21
f 21//21 19//19 51//51
f 21//21 51//51 54//54
f 21//21 54//54 9//9
f 21//21 9//9 8//8
f 21//21 8//8 41//41
f 21//21 41//41 38//38
f 21//21 38//38 30//30
f 21//21 30//30 31//31
f 15//15 55//55 13//13
f 15//15 17//17 55//55
f 37//37 39//39 40//40
f 27//27 37//37 40//40
# 113 faces, 0 coords texture

# End of File