# Blender v3.6.4 OBJ File: ''
# www.blender.org
mtllib link_13.0.mtl
o link_13.0
v 0.007813 -0.001720 -0.000167
v 0.008000 0.000000 0.000333
v 0.008000 -0.000000 -0.000167
v 0.007813 0.001720 0.000333
v 0.007813 0.001720 -0.000167
v 0.007261 0.003359 0.000333
v 0.007261 0.003359 -0.000167
v 0.006369 0.004841 0.000333
v 0.006369 0.004841 -0.000167
v 0.005179 0.006097 0.000333
v 0.005179 0.006097 -0.000167
v 0.003747 0.007068 0.000333
v 0.003747 0.007068 -0.000167
v 0.002140 0.007708 0.000333
v 0.002140 0.007708 -0.000167
v 0.000433 0.007988 0.000333
v 0.000433 0.007988 -0.000167
v -0.001294 0.007895 0.000333
v -0.001294 0.007895 -0.000167
v -0.002961 0.007432 0.000333
v -0.002961 0.007432 -0.000167
v -0.004489 0.006622 0.000333
v -0.004489 0.006622 -0.000167
v -0.005808 0.005502 0.000333
v -0.005808 0.005502 -0.000167
v -0.006855 0.004124 0.000333
v -0.006855 0.004124 -0.000167
v -0.007581 0.002554 0.000333
v -0.007581 0.002554 -0.000167
v -0.007953 0.000865 0.000333
v -0.007953 0.000865 -0.000167
v -0.007953 -0.000865 0.000333
v -0.007953 -0.000865 -0.000167
v -0.007581 -0.002554 0.000333
v -0.007581 -0.002554 -0.000167
v -0.006855 -0.004124 0.000333
v -0.006855 -0.004124 -0.000167
v -0.005808 -0.005502 0.000333
v -0.005808 -0.005502 -0.000167
v -0.004489 -0.006622 0.000333
v -0.004489 -0.006622 -0.000167
v -0.002961 -0.007432 0.000333
v -0.002961 -0.007432 -0.000167
v -0.001294 -0.007895 0.000333
v -0.001294 -0.007895 -0.000167
v 0.000433 -0.007988 0.000333
v 0.000433 -0.007988 -0.000167
v 0.002140 -0.007708 0.000333
v 0.002140 -0.007708 -0.000167
v 0.003747 -0.007068 0.000333
v 0.003747 -0.007068 -0.000167
v 0.005179 -0.006097 0.000333
v 0.005179 -0.006097 -0.000167
v 0.006369 -0.004841 0.000333
v 0.006369 -0.004841 -0.000167
v 0.007261 -0.003359 0.000333
v 0.007261 -0.003359 -0.000167
v 0.007813 -0.001720 0.000333
v 0.008000 0.000000 0.000333
v 0.009300 -0.011450 0.004133
v 0.009300 -0.013450 0.004133
v 0.009800 -0.013450 0.004133
v 0.009800 0.013450 0.004133
v 0.009300 0.013450 0.004133
v 0.009300 0.011250 0.004133
v -0.009800 0.011250 0.004133
v -0.009800 -0.011450 0.004133
v -0.002298 -0.010750 0.013605
v -0.002819 -0.010750 0.014507
v -0.003000 -0.010750 0.015533
v 0.000521 -0.010750 0.018487
v 0.000521 -0.010750 0.012578
v -0.000521 -0.010750 0.018487
v -0.000521 -0.010750 0.012578
v -0.001500 -0.010750 0.012935
v -0.002819 -0.010750 0.016559
v -0.002298 -0.010750 0.017461
v 0.001500 -0.010750 0.018131
v 0.002298 -0.010750 0.013605
v 0.001500 -0.010750 0.012935
v -0.001500 -0.010750 0.018131
v 0.003000 -0.010750 0.015533
v 0.002819 -0.010750 0.014507
v 0.002819 -0.010750 0.016559
v 0.002298 -0.010750 0.017461
v 0.009800 -0.013450 -0.000167
v 0.009050 -0.013450 0.004200
v -0.009800 -0.013450 -0.000167
v 0.008867 -0.013450 0.004383
v 0.008800 -0.013450 0.004633
v 0.008800 -0.013450 0.007833
v -0.009800 -0.013450 0.018833
v -0.006800 -0.013450 0.021833
v -0.005200 -0.013450 0.021833
v 0.008628 -0.013450 0.010023
v 0.008115 -0.013450 0.012159
v 0.007274 -0.013450 0.014189
v 0.003029 -0.013450 0.019159
v 0.001156 -0.013450 0.020307
v -0.007727 -0.013450 0.021686
v -0.008563 -0.013450 0.021260
v -0.009653 -0.013450 0.019760
v -0.009227 -0.013450 0.020596
v -0.000874 -0.013450 0.021148
v -0.003010 -0.013450 0.021661
v 0.006126 -0.013450 0.016062
v 0.004699 -0.013450 0.017732
v 0.009050 -0.011450 0.004200
v 0.008867 -0.011450 0.004383
v 0.008800 -0.011450 0.004633
v -0.007727 -0.011450 0.021686
v -0.002298 -0.011450 0.017461
v -0.008563 -0.011450 0.021260
v -0.002819 -0.011450 0.016559
v -0.009227 -0.011450 0.020596
v 0.003000 -0.011450 0.015533
v 0.002819 -0.011450 0.016559
v 0.004699 -0.011450 0.017732
v -0.002819 -0.011450 0.014507
v -0.002298 -0.011450 0.013605
v 0.003029 -0.011450 0.019159
v -0.003000 -0.011450 0.015533
v -0.009800 -0.011450 0.018833
v -0.009653 -0.011450 0.019760
v -0.006800 -0.011450 0.021833
v -0.005200 -0.011450 0.021833
v -0.001500 -0.011450 0.018131
v -0.003010 -0.011450 0.021661
v -0.000521 -0.011450 0.018487
v -0.000874 -0.011450 0.021148
v 0.000521 -0.011450 0.018487
v 0.001156 -0.011450 0.020307
v 0.001500 -0.011450 0.018131
v 0.002298 -0.011450 0.017461
v -0.001500 -0.011450 0.012935
v -0.000521 -0.011450 0.012578
v 0.001500 -0.011450 0.012935
v 0.002298 -0.011450 0.013605
v 0.008800 -0.011450 0.007833
v 0.000521 -0.011450 0.012578
v 0.006126 -0.011450 0.016062
v 0.007274 -0.011450 0.014189
v 0.002819 -0.011450 0.014507
v 0.008115 -0.011450 0.012159
v 0.008628 -0.011450 0.010023
v 0.003614 0.010450 0.016707
v 0.003074 0.010450 0.017766
v -0.002234 0.010450 0.012459
v 0.002234 0.010450 0.018607
v 0.001174 0.010450 0.019147
v 0.000000 0.010450 0.019333
v -0.001174 0.010450 0.019147
v -0.002234 0.010450 0.018607
v -0.003800 0.010450 0.015533
v -0.003074 0.010450 0.013299
v -0.003614 0.010450 0.014359
v -0.001174 0.010450 0.011919
v 0.000000 0.010450 0.011733
v 0.001174 0.010450 0.011919
v 0.002234 0.010450 0.012459
v 0.003074 0.010450 0.013299
v 0.003800 0.010450 0.015533
v 0.003614 0.010450 0.014359
v -0.003074 0.010450 0.017766
v -0.003614 0.010450 0.016707
v 0.009800 0.013450 -0.000167
v 0.009050 0.013450 0.004200
v 0.008867 0.013450 0.004383
v -0.009800 0.013450 -0.000167
v 0.008800 0.013450 0.004633
v 0.001156 0.013450 0.020307
v 0.003029 0.013450 0.019159
v 0.007274 0.013450 0.014189
v 0.008115 0.013450 0.012159
v -0.000874 0.013450 0.021148
v 0.008628 0.013450 0.010023
v 0.008800 0.013450 0.007833
v -0.008563 0.013450 0.021260
v -0.007727 0.013450 0.021686
v -0.009227 0.013450 0.020596
v -0.006800 0.013450 0.021833
v -0.009653 0.013450 0.019760
v 0.004699 0.013450 0.017732
v 0.006126 0.013450 0.016062
v -0.009800 0.013450 0.018833
v -0.005200 0.013450 0.021833
v -0.003010 0.013450 0.021661
v 0.009050 0.011250 0.004200
v 0.008867 0.011250 0.004383
v 0.008800 0.011250 0.004633
v 0.003614 0.011250 0.014359
v 0.003074 0.011250 0.013299
v -0.001174 0.011250 0.011919
v -0.002234 0.011250 0.012459
v -0.009653 0.011250 0.019760
v -0.009800 0.011250 0.018833
v -0.003614 0.011250 0.016707
v 0.002234 0.011250 0.012459
v 0.001174 0.011250 0.011919
v 0.000000 0.011250 0.011733
v 0.008800 0.011250 0.007833
v 0.008628 0.011250 0.010023
v -0.003074 0.011250 0.013299
v -0.003614 0.011250 0.014359
v -0.003800 0.011250 0.015533
v -0.006800 0.011250 0.021833
v -0.007727 0.011250 0.021686
v -0.003074 0.011250 0.017766
v -0.008563 0.011250 0.021260
v -0.009227 0.011250 0.020596
v 0.008115 0.011250 0.012159
v 0.007274 0.011250 0.014189
v 0.006126 0.011250 0.016062
v -0.005200 0.011250 0.021833
v -0.002234 0.011250 0.018607
v -0.003010 0.011250 0.021661
v -0.001174 0.011250 0.019147
v -0.000874 0.011250 0.021148
v 0.000000 0.011250 0.019333
v 0.001156 0.011250 0.020307
v 0.001174 0.011250 0.019147
v 0.003029 0.011250 0.019159
v 0.002234 0.011250 0.018607
v 0.004699 0.011250 0.017732
v 0.003074 0.011250 0.017766
v 0.003614 0.011250 0.016707
v 0.003800 0.011250 0.015533
v 0.000000 0.010450 0.011733
v 0.000000 0.011250 0.011733
v 0.000000 0.011250 0.019333
v 0.008000 -0.000000 -0.000167
vn -0.9941 0.1081 0.0000
vn -0.9941 -0.1081 0.0000
vn -0.9477 -0.3192 0.0000
vn -0.9476 -0.3195 -0.0000
vn -0.8568 -0.5157 0.0000
vn -0.7259 -0.6878 0.0000
vn -0.5612 -0.8277 0.0000
vn -0.3700 -0.9290 0.0000
vn -0.1619 -0.9868 0.0000
vn 0.0538 -0.9986 0.0000
vn 0.0541 -0.9985 -0.0000
vn 0.2676 -0.9635 0.0000
vn 0.2673 -0.9636 0.0000
vn 0.4684 -0.8835 0.0000
vn 0.6473 -0.7623 0.0000
vn 0.7962 -0.6050 0.0000
vn 0.9077 -0.4197 0.0000
vn 0.9766 -0.2151 0.0000
vn 1.0000 0.0000 0.0000
vn 0.9766 0.2151 0.0000
vn 0.9077 0.4197 0.0000
vn 0.7962 0.6050 0.0000
vn 0.6473 0.7623 0.0000
vn 0.4684 0.8835 0.0000
vn 0.2676 0.9635 0.0000
vn 0.2673 0.9636 -0.0000
vn 0.0538 0.9986 0.0000
vn 0.0541 0.9985 0.0000
vn -0.1619 0.9868 0.0000
vn -0.3700 0.9290 0.0000
vn -0.5612 0.8277 0.0000
vn -0.7259 0.6878 0.0000
vn -0.8568 0.5157 0.0000
vn -0.9477 0.3192 0.0000
vn -0.9476 0.3195 0.0000
vn 0.0000 -0.0000 -1.0000
vn 0.0000 0.0000 1.0000
vn 0.0000 1.0000 -0.0000
vn 0.0000 -1.0000 0.0000
vn 0.2589 0.0000 0.9659
vn 0.7071 0.0000 0.7071
vn 0.9659 0.0000 0.2589
vn 0.9969 0.0000 0.0783
vn 0.9724 0.0000 0.2335
vn 0.9239 0.0000 0.3827
vn 0.8526 0.0000 0.5226
vn 0.7603 0.0000 0.6496
vn 0.6493 0.0000 0.7606
vn 0.6496 0.0000 0.7603
vn 0.5226 0.0000 0.8526
vn 0.3827 0.0000 0.9239
vn 0.2335 0.0000 0.9723
vn 0.0783 0.0000 0.9969
vn -0.1566 0.0000 0.9877
vn -0.1561 0.0000 0.9877
vn -0.4540 0.0000 0.8910
vn -0.7071 0.0000 0.7071
vn -0.8910 0.0000 0.4540
vn -0.9877 0.0000 0.1563
vn -0.9877 0.0000 0.1566
vn 0.9848 0.0000 -0.1737
vn 0.9848 0.0000 0.1737
vn 0.8661 0.0000 0.4999
vn 0.8659 0.0000 0.5002
vn 0.6430 0.0000 0.7659
vn 0.3421 0.0000 0.9397
vn 0.3417 0.0000 0.9398
vn -0.3421 -0.0000 0.9397
vn -0.3417 0.0000 0.9398
vn -0.6430 0.0000 0.7659
vn -0.8661 -0.0000 0.4999
vn -0.8659 0.0000 0.5002
vn -0.9848 0.0000 0.1737
vn -0.9848 0.0000 -0.1737
vn -0.8659 0.0000 -0.5002
vn -0.6430 0.0000 -0.7659
vn -0.3421 -0.0000 -0.9397
vn -0.3421 0.0000 -0.9396
vn 0.3421 0.0000 -0.9397
vn 0.3423 -0.0000 -0.9396
vn 0.3421 0.0000 -0.9396
vn 0.6430 0.0000 -0.7659
vn 0.8659 0.0000 -0.5002
vn -0.1563 0.0000 0.9877
vn 0.2335 0.0000 0.9724
vn 0.1565 0.0000 -0.9877
vn -0.1565 0.0000 -0.9877
vn -0.4539 0.0000 -0.8910
vn -0.7071 0.0000 -0.7071
vn -0.8910 0.0000 -0.4539
vn -0.9877 0.0000 -0.1565
vn -0.9877 0.0000 0.1565
vn -0.8909 0.0000 0.4543
vn -0.8911 0.0000 0.4538
vn -0.7073 0.0000 0.7069
vn -0.7072 0.0000 0.7070
vn -0.4539 0.0000 0.8910
vn -0.1565 0.0000 0.9877
vn 0.1565 0.0000 0.9877
vn 0.4539 0.0000 0.8910
vn 0.7072 -0.0000 0.7070
vn 0.7073 0.0000 0.7069
vn 0.8910 0.0000 0.4540
vn 0.8909 0.0000 0.4543
vn 0.9877 0.0000 0.1565
vn 0.9877 0.0000 -0.1565
vn 0.8910 0.0000 -0.4539
vn 0.7071 0.0000 -0.7071
vn 0.4539 0.0000 -0.8910
vn -1.0000 0.0000 0.0000
usemtl black_metal
s 1
f 1//1 2//1 3//1
f 3//2 2//2 4//2
f 3//2 4//2 5//2
f 5//3 4//4 6//3
f 5//3 6//3 7//3
f 7//5 6//5 8//5
f 7//5 8//5 9//5
f 9//6 8//6 10//6
f 9//6 10//6 11//6
f 11//7 10//7 12//7
f 11//7 12//7 13//7
f 13//8 12//8 14//8
f 13//8 14//8 15//8
f 15//9 14//9 16//9
f 15//9 16//9 17//9
f 17//10 16//11 18//10
f 17//10 18//10 19//10
f 19//12 18//13 20//12
f 19//12 20//12 21//12
f 21//14 20//14 22//14
f 21//14 22//14 23//14
f 23//15 22//15 24//15
f 23//15 24//15 25//15
f 25//16 24//16 26//16
f 25//16 26//16 27//16
f 27//17 26//17 28//17
f 27//17 28//17 29//17
f 29//18 28//18 30//18
f 29//18 30//18 31//18
f 31//19 30//19 32//19
f 31//19 32//19 33//19
f 33//20 32//20 34//20
f 33//20 34//20 35//20
f 35//21 34//21 36//21
f 35//21 36//21 37//21
f 37//22 36//22 38//22
f 37//22 38//22 39//22
f 39//23 38//23 40//23
f 39//23 40//23 41//23
f 41//24 40//24 42//24
f 41//24 42//24 43//24
f 43//25 42//25 44//25
f 43//25 44//25 45//26
f 45//27 44//27 46//27
f 45//27 46//27 47//28
f 47//29 46//29 48//29
f 47//29 48//29 49//29
f 49//30 48//30 50//30
f 49//30 50//30 51//30
f 51//31 50//31 52//31
f 51//31 52//31 53//31
f 53//32 52//32 54//32
f 53//32 54//32 55//32
f 55//33 54//33 56//33
f 55//33 56//33 57//33
f 57//34 56//34 58//34
f 57//34 58//34 1//35
f 1//1 58//1 2//1
f 44//36 42//36 16//36
f 44//36 16//36 46//36
f 46//36 16//36 14//36
f 46//36 14//36 12//36
f 54//36 52//36 12//36
f 42//36 40//36 16//36
f 16//36 40//36 38//36
f 16//36 38//36 36//36
f 36//36 34//36 16//36
f 16//36 34//36 32//36
f 16//36 32//36 30//36
f 10//36 8//36 58//36
f 58//36 8//36 6//36
f 58//36 6//36 59//36
f 59//36 6//36 4//36
f 10//36 58//36 12//36
f 12//36 58//36 56//36
f 12//36 56//36 54//36
f 52//36 50//36 12//36
f 12//36 50//36 48//36
f 12//36 48//36 46//36
f 30//36 28//36 16//36
f 16//36 28//36 26//36
f 16//36 26//36 24//36
f 24//36 22//36 16//36
f 16//36 22//36 20//36
f 16//36 20//36 18//36
f 60//37 61//37 62//37
f 63//37 64//37 65//37
f 66//37 67//37 65//37
f 65//37 67//37 60//37
f 65//37 60//37 63//37
f 63//37 60//37 62//37
f 68//38 69//38 70//38
f 71//38 72//38 73//38
f 73//38 72//38 74//38
f 73//38 74//38 75//38
f 70//38 76//38 77//38
f 71//38 78//38 72//38
f 72//38 78//38 79//38
f 72//38 79//38 80//38
f 75//38 68//38 73//38
f 73//38 68//38 70//38
f 73//38 70//38 81//38
f 81//38 70//38 77//38
f 82//38 83//38 84//38
f 84//38 83//38 79//38
f 84//38 79//38 85//38
f 85//38 79//38 78//38
f 62//39 61//39 86//39
f 86//39 61//39 87//39
f 86//39 87//39 88//39
f 87//39 89//39 88//39
f 88//39 89//39 90//39
f 88//39 90//39 91//39
f 92//39 88//39 93//39
f 93//39 88//39 94//39
f 91//39 95//39 88//39
f 88//39 95//39 96//39
f 88//39 96//39 97//39
f 88//39 98//39 99//39
f 93//39 100//39 92//39
f 92//39 100//39 101//39
f 92//39 101//39 102//39
f 102//39 101//39 103//39
f 99//39 104//39 88//39
f 88//39 104//39 105//39
f 88//39 105//39 94//39
f 97//39 106//39 88//39
f 88//39 106//39 107//39
f 88//39 107//39 98//39
f 61//40 60//40 108//40
f 61//40 108//40 87//40
f 87//41 108//41 109//41
f 87//41 109//41 89//41
f 89//42 109//42 110//42
f 89//42 110//42 90//42
f 60//38 67//38 108//38
f 108//38 67//38 109//38
f 111//38 112//38 113//38
f 113//38 112//38 114//38
f 113//38 114//38 115//38
f 116//38 117//38 118//38
f 67//38 119//38 120//38
f 118//38 117//38 121//38
f 119//38 67//38 122//38
f 122//38 67//38 123//38
f 122//38 123//38 114//38
f 114//38 123//38 124//38
f 114//38 124//38 115//38
f 111//38 125//38 112//38
f 112//38 125//38 126//38
f 112//38 126//38 127//38
f 127//38 126//38 128//38
f 127//38 128//38 129//38
f 129//38 128//38 130//38
f 129//38 130//38 131//38
f 131//38 130//38 132//38
f 131//38 132//38 133//38
f 133//38 132//38 121//38
f 133//38 121//38 134//38
f 134//38 121//38 117//38
f 120//38 135//38 67//38
f 67//38 135//38 136//38
f 67//38 136//38 109//38
f 137//38 138//38 139//38
f 136//38 140//38 109//38
f 109//38 140//38 137//38
f 109//38 137//38 110//38
f 110//38 137//38 139//38
f 118//38 141//38 116//38
f 116//38 141//38 142//38
f 116//38 142//38 143//38
f 143//38 142//38 144//38
f 143//38 144//38 138//38
f 138//38 144//38 145//38
f 138//38 145//38 139//38
f 91//43 139//43 145//43
f 91//43 145//43 95//43
f 95//44 145//44 144//44
f 95//44 144//44 96//44
f 96//45 144//45 142//45
f 96//45 142//45 97//45
f 97//46 142//46 141//46
f 97//46 141//46 106//46
f 106//47 141//47 118//47
f 106//47 118//47 107//47
f 107//48 118//49 121//49
f 107//48 121//49 98//49
f 98//50 121//50 132//50
f 98//50 132//50 99//50
f 99//51 132//51 130//51
f 99//51 130//51 104//51
f 104//52 130//52 128//52
f 104//52 128//52 105//52
f 105//53 128//53 126//53
f 105//53 126//53 94//53
f 139//19 91//19 110//19
f 110//19 91//19 90//19
f 93//54 125//55 111//54
f 93//54 111//54 100//54
f 100//56 111//56 113//56
f 100//56 113//56 101//56
f 101//57 113//57 115//57
f 101//57 115//57 103//57
f 103//58 115//58 124//58
f 103//58 124//58 102//58
f 102//59 124//60 123//60
f 102//59 123//60 92//59
f 94//37 126//37 93//37
f 93//37 126//37 125//37
f 143//61 82//61 116//61
f 116//62 82//62 84//62
f 116//62 84//62 117//62
f 117//63 84//64 85//64
f 117//63 85//64 134//64
f 134//65 85//65 78//65
f 134//65 78//65 133//65
f 133//66 78//67 71//67
f 133//66 71//67 131//67
f 131//37 71//37 73//37
f 131//37 73//37 129//37
f 129//68 73//69 81//69
f 129//68 81//69 127//69
f 127//70 81//70 77//70
f 127//70 77//70 112//70
f 112//71 77//72 76//72
f 112//71 76//72 114//72
f 114//73 76//73 70//73
f 114//73 70//73 122//73
f 122//74 70//74 69//74
f 122//74 69//74 119//74
f 119//75 69//75 68//75
f 119//75 68//75 120//75
f 120//76 68//76 75//76
f 120//76 75//76 135//76
f 135//77 75//78 74//78
f 135//77 74//78 136//78
f 136//36 74//36 72//36
f 136//36 72//36 140//36
f 140//79 72//80 80//81
f 140//79 80//81 137//81
f 137//82 80//82 79//82
f 137//82 79//82 138//82
f 138//83 79//83 83//83
f 138//83 83//83 143//83
f 143//61 83//61 82//61
f 146//39 147//39 148//39
f 148//39 147//39 149//39
f 148//39 149//39 150//39
f 150//39 151//39 148//39
f 148//39 151//39 152//39
f 148//39 152//39 153//39
f 148//39 154//39 155//39
f 155//39 154//39 156//39
f 148//39 157//39 146//39
f 146//39 157//39 158//39
f 146//39 158//39 159//39
f 159//39 160//39 146//39
f 146//39 160//39 161//39
f 146//39 161//39 162//39
f 162//39 161//39 163//39
f 153//39 164//39 148//39
f 148//39 164//39 165//39
f 148//39 165//39 154//39
f 63//38 166//38 64//38
f 64//38 166//38 167//38
f 167//38 166//38 168//38
f 168//38 166//38 169//38
f 168//38 169//38 170//38
f 171//38 172//38 169//38
f 169//38 173//38 174//38
f 171//38 169//38 175//38
f 174//38 176//38 169//38
f 169//38 176//38 177//38
f 169//38 177//38 170//38
f 178//38 179//38 180//38
f 180//38 179//38 181//38
f 180//38 181//38 182//38
f 172//38 183//38 169//38
f 169//38 183//38 184//38
f 169//38 184//38 173//38
f 182//38 181//38 185//38
f 185//38 181//38 186//38
f 185//38 186//38 169//38
f 169//38 186//38 187//38
f 169//38 187//38 175//38
f 65//40 64//40 167//40
f 65//40 167//40 188//40
f 188//41 167//41 168//41
f 188//41 168//41 189//41
f 189//42 168//42 170//42
f 189//42 170//42 190//42
f 189//39 191//39 192//39
f 193//39 194//39 188//39
f 188//39 194//39 66//39
f 188//39 66//39 65//39
f 195//39 196//39 197//39
f 192//39 198//39 189//39
f 189//39 198//39 199//39
f 189//39 199//39 188//39
f 188//39 199//39 200//39
f 188//39 200//39 193//39
f 190//39 201//39 202//39
f 194//39 203//39 66//39
f 66//39 203//39 204//39
f 66//39 204//39 196//39
f 196//39 204//39 205//39
f 196//39 205//39 197//39
f 206//39 207//39 208//39
f 208//39 207//39 209//39
f 208//39 209//39 197//39
f 197//39 209//39 210//39
f 197//39 210//39 195//39
f 202//39 211//39 190//39
f 190//39 211//39 212//39
f 190//39 212//39 213//39
f 206//39 208//39 214//39
f 214//39 208//39 215//39
f 214//39 215//39 216//39
f 216//39 215//39 217//39
f 216//39 217//39 218//39
f 218//39 217//39 219//39
f 218//39 219//39 220//39
f 220//39 219//39 221//39
f 220//39 221//39 222//39
f 222//39 221//39 223//39
f 222//39 223//39 224//39
f 224//39 223//39 225//39
f 224//39 225//39 226//39
f 213//39 224//39 190//39
f 190//39 224//39 226//39
f 190//39 226//39 189//39
f 189//39 226//39 227//39
f 189//39 227//39 191//39
f 206//84 181//54 179//84
f 206//84 179//84 207//54
f 207//56 179//56 178//56
f 207//56 178//56 209//56
f 209//57 178//57 180//57
f 209//57 180//57 210//57
f 210//58 180//58 182//58
f 210//58 182//58 195//58
f 195//60 182//59 185//60
f 195//60 185//60 196//60
f 177//19 201//19 170//19
f 170//19 201//19 190//19
f 201//43 177//43 176//43
f 201//43 176//43 202//43
f 202//44 176//44 174//44
f 202//44 174//44 211//44
f 211//45 174//45 173//45
f 211//45 173//45 212//45
f 212//46 173//46 184//46
f 212//46 184//46 213//46
f 213//47 184//47 183//47
f 213//47 183//47 224//47
f 224//49 183//49 172//49
f 224//49 172//49 222//49
f 222//50 172//50 171//50
f 222//50 171//50 220//50
f 220//51 171//51 175//51
f 220//51 175//51 218//51
f 218//85 175//52 187//85
f 218//85 187//85 216//85
f 216//53 187//53 186//53
f 216//53 186//53 214//53
f 181//37 206//37 186//37
f 186//37 206//37 214//37
f 199//86 228//86 229//86
f 229//87 228//87 157//87
f 229//87 157//87 193//87
f 193//88 157//88 148//88
f 193//88 148//88 194//88
f 194//89 148//89 155//89
f 194//89 155//89 203//89
f 203//90 155//90 156//90
f 203//90 156//90 204//90
f 204//91 156//91 154//91
f 204//91 154//91 205//91
f 205//92 154//92 165//92
f 205//92 165//92 197//92
f 197//93 165//93 164//93
f 197//93 164//93 208//94
f 208//95 164//57 153//96
f 208//95 153//96 215//95
f 215//97 153//97 152//97
f 215//97 152//97 217//97
f 217//98 152//98 151//98
f 217//98 151//98 230//98
f 230//99 151//99 150//99
f 230//99 150//99 221//99
f 221//100 150//100 149//100
f 221//100 149//100 223//100
f 223//101 149//102 147//102
f 223//101 147//102 225//41
f 225//103 147//104 146//104
f 225//103 146//104 226//104
f 226//105 146//105 162//105
f 226//105 162//105 227//105
f 227//106 162//106 163//106
f 227//106 163//106 191//106
f 191//107 163//107 161//107
f 191//107 161//107 192//107
f 192//108 161//108 160//108
f 192//108 160//108 198//108
f 198//109 160//109 159//109
f 198//109 159//109 199//109
f 199//86 159//86 228//86
f 169//36 31//36 88//36
f 88//36 31//36 33//36
f 88//36 33//36 35//36
f 35//36 37//36 88//36
f 88//36 37//36 39//36
f 88//36 39//36 41//36
f 21//36 23//36 169//36
f 169//36 23//36 25//36
f 86//36 49//36 51//36
f 7//36 9//36 166//36
f 166//36 9//36 11//36
f 166//36 11//36 13//36
f 13//36 15//36 166//36
f 166//36 15//36 17//36
f 166//36 17//36 169//36
f 169//36 17//36 19//36
f 169//36 19//36 21//36
f 25//36 27//36 169//36
f 169//36 27//36 29//36
f 169//36 29//36 31//36
f 41//36 43//36 88//36
f 88//36 43//36 45//36
f 88//36 45//36 86//36
f 86//36 45//36 47//36
f 86//36 47//36 49//36
f 51//36 53//36 86//36
f 86//36 53//36 55//36
f 86//36 55//36 57//36
f 57//36 1//36 86//36
f 86//36 1//36 231//36
f 86//36 231//36 166//36
f 166//36 231//36 5//36
f 166//36 5//36 7//36
f 86//19 166//19 62//19
f 62//19 166//19 63//19
f 196//110 185//110 66//110
f 66//110 185//110 169//110
f 66//110 169//110 67//110
f 67//110 169//110 88//110
f 67//110 88//110 123//110
f 123//110 88//110 92//110
