# Blender v3.6.4 OBJ File: ''
# www.blender.org
mtllib link_3.0.mtl
o link_3.0
v 0.000500 -0.000866 0.015700
v 0.000000 -0.001000 0.011400
v 0.000000 -0.001000 0.015700
v -0.000500 -0.000866 0.011400
v -0.000500 -0.000866 0.015700
v -0.000866 -0.000500 0.011400
v -0.000866 -0.000500 0.015700
v -0.001000 0.000000 0.011400
v -0.001000 0.000000 0.015700
v -0.000866 0.000500 0.011400
v -0.000866 0.000500 0.015700
v -0.000500 0.000866 0.011400
v -0.000500 0.000866 0.015700
v 0.000000 0.001000 0.011400
v 0.000000 0.001000 0.015700
v 0.000500 0.000866 0.011400
v 0.000500 0.000866 0.015700
v 0.000866 0.000500 0.011400
v 0.000866 0.000500 0.015700
v 0.001000 0.000000 0.011400
v 0.001000 0.000000 0.015700
v 0.000866 -0.000500 0.011400
v 0.000866 -0.000500 0.015700
v 0.000500 -0.000866 0.011400
v -0.009800 -0.013450 0.015700
v -0.009800 0.013450 0.015700
v -0.001000 0.000000 0.015700
v 0.009800 -0.013450 0.015700
v 0.000000 -0.001000 0.015700
v 0.000000 0.001000 0.015700
v 0.009800 0.013450 0.015700
v 0.001000 0.000000 0.015700
v 0.002234 0.010450 0.003074
v 0.001174 0.010450 0.003614
v -0.003074 0.010450 -0.002234
v 0.000000 0.010450 0.003800
v -0.002234 0.010450 -0.003074
v -0.001174 0.010450 -0.003614
v 0.000000 0.010450 -0.003800
v 0.003614 0.010450 -0.001174
v 0.003800 0.010450 -0.000000
v 0.001174 0.010450 -0.003614
v 0.002234 0.010450 -0.003074
v 0.003074 0.010450 -0.002234
v 0.003614 0.010450 0.001174
v 0.003074 0.010450 0.002234
v -0.001174 0.010450 0.003614
v -0.002234 0.010450 0.003074
v -0.003074 0.010450 0.002234
v -0.003614 0.010450 0.001174
v -0.003800 0.010450 -0.000000
v -0.003614 0.010450 -0.001174
v 0.003800 0.011250 -0.000000
v 0.003614 0.011250 -0.001174
v 0.005699 0.011250 -0.002199
v -0.009227 0.011250 -0.005063
v -0.008563 0.011250 -0.005727
v -0.003074 0.011250 -0.002234
v 0.004029 0.011250 -0.003626
v -0.009800 0.011250 -0.003300
v -0.003614 0.011250 -0.001174
v -0.003800 0.011250 -0.000000
v -0.009800 0.011250 0.011400
v -0.003614 0.011250 0.001174
v -0.003074 0.011250 0.002234
v -0.002234 0.011250 0.003074
v 0.003074 0.011250 -0.002234
v 0.002234 0.011250 -0.003074
v 0.002156 0.011250 -0.004774
v 0.001174 0.011250 -0.003614
v 0.000126 0.011250 -0.005615
v 0.000000 0.011250 -0.003800
v -0.002010 0.011250 -0.006128
v -0.001174 0.011250 -0.003614
v -0.004200 0.011250 -0.006300
v -0.002234 0.011250 -0.003074
v -0.006800 0.011250 -0.006300
v -0.007727 0.011250 -0.006153
v -0.009653 0.011250 -0.004227
v -0.001174 0.011250 0.003614
v 0.000000 0.011250 0.003800
v 0.009800 0.011250 0.011400
v 0.003074 0.011250 0.002234
v 0.009800 0.011250 0.007700
v 0.002234 0.011250 0.003074
v 0.001174 0.011250 0.003614
v 0.007126 0.011250 -0.000529
v 0.008274 0.011250 0.001344
v 0.003614 0.011250 0.001174
v 0.009115 0.011250 0.003374
v 0.009628 0.011250 0.005510
v -0.002010 0.013450 -0.006128
v -0.004200 0.013450 -0.006300
v 0.009800 0.013450 0.007700
v -0.008563 0.013450 -0.005727
v -0.009227 0.013450 -0.005063
v -0.009653 0.013450 -0.004227
v 0.009628 0.013450 0.005510
v 0.009115 0.013450 0.003374
v 0.008274 0.013450 0.001344
v 0.007126 0.013450 -0.000529
v 0.005699 0.013450 -0.002199
v 0.004029 0.013450 -0.003626
v -0.009800 0.013450 -0.003300
v -0.006800 0.013450 -0.006300
v -0.007727 0.013450 -0.006153
v 0.002156 0.013450 -0.004774
v 0.000126 0.013450 -0.005615
v -0.003800 0.010450 -0.000000
v 0.000000 0.010450 0.003800
v 0.003800 0.011250 -0.000000
v 0.000000 0.010450 -0.003800
v 0.009800 -0.011050 0.011400
v 0.001000 0.000000 0.011400
v -0.009800 -0.011050 0.011400
v 0.000000 -0.001000 0.011400
v -0.001000 0.000000 0.011400
v 0.009800 -0.011050 0.009700
v -0.009800 -0.011050 0.009700
v 0.002819 -0.009750 -0.001026
v 0.002298 -0.009750 -0.001928
v 0.001500 -0.009750 -0.002598
v 0.002298 -0.009750 0.001928
v -0.002298 -0.009750 -0.001928
v -0.002819 -0.009750 -0.001026
v -0.003000 -0.009750 0.000000
v -0.002819 -0.009750 0.001026
v -0.002298 -0.009750 0.001928
v 0.003000 -0.009750 0.000000
v 0.002819 -0.009750 0.001026
v 0.000521 -0.009750 -0.002954
v -0.000521 -0.009750 -0.002954
v -0.001500 -0.009750 -0.002598
v 0.000521 -0.009750 0.002954
v 0.001500 -0.009750 0.002598
v -0.000521 -0.009750 0.002954
v -0.001500 -0.009750 0.002598
v 0.009800 -0.013450 0.007700
v -0.004200 -0.013450 -0.006300
v -0.009800 -0.013450 -0.003300
v 0.009628 -0.013450 0.005510
v -0.002010 -0.013450 -0.006128
v 0.000126 -0.013450 -0.005615
v 0.002156 -0.013450 -0.004774
v -0.009227 -0.013450 -0.005063
v -0.008563 -0.013450 -0.005727
v -0.009653 -0.013450 -0.004227
v -0.007727 -0.013450 -0.006153
v -0.006800 -0.013450 -0.006300
v 0.004029 -0.013450 -0.003626
v 0.005699 -0.013450 -0.002199
v 0.007126 -0.013450 -0.000529
v 0.008274 -0.013450 0.001344
v 0.009115 -0.013450 0.003374
v 0.009800 -0.011450 0.009700
v 0.009800 -0.011450 0.007700
v 0.002298 -0.011450 0.001928
v 0.009628 -0.011450 0.005510
v 0.002819 -0.011450 0.001026
v 0.001500 -0.011450 0.002598
v 0.000521 -0.011450 0.002954
v -0.009800 -0.011450 0.009700
v -0.000521 -0.011450 0.002954
v -0.001500 -0.011450 0.002598
v -0.002298 -0.011450 0.001928
v -0.002819 -0.011450 0.001026
v -0.009800 -0.011450 -0.003300
v -0.002298 -0.011450 -0.001928
v -0.007727 -0.011450 -0.006153
v -0.008563 -0.011450 -0.005727
v -0.003000 -0.011450 0.000000
v -0.002819 -0.011450 -0.001026
v -0.009653 -0.011450 -0.004227
v -0.009227 -0.011450 -0.005063
v 0.009115 -0.011450 0.003374
v 0.008274 -0.011450 0.001344
v 0.003000 -0.011450 0.000000
v 0.007126 -0.011450 -0.000529
v 0.002819 -0.011450 -0.001026
v 0.005699 -0.011450 -0.002199
v 0.002298 -0.011450 -0.001928
v 0.004029 -0.011450 -0.003626
v 0.001500 -0.011450 -0.002598
v 0.002156 -0.011450 -0.004774
v 0.000521 -0.011450 -0.002954
v 0.000126 -0.011450 -0.005615
v -0.000521 -0.011450 -0.002954
v -0.002010 -0.011450 -0.006128
v -0.001500 -0.011450 -0.002598
v -0.004200 -0.011450 -0.006300
v -0.006800 -0.011450 -0.006300
v 0.003000 -0.009750 0.000000
v 0.003000 -0.011450 0.000000
v -0.003000 -0.011450 0.000000
vn -0.2589 0.9659 -0.0000
vn 0.2589 0.9659 -0.0000
vn 0.7071 0.7071 -0.0000
vn 0.9659 0.2589 -0.0000
vn 0.9659 -0.2589 0.0000
vn 0.7071 -0.7071 0.0000
vn 0.2589 -0.9659 0.0000
vn -0.2589 -0.9659 0.0000
vn -0.7071 -0.7071 0.0000
vn -0.9659 -0.2589 0.0000
vn -0.9659 0.2589 -0.0000
vn -0.7071 0.7071 -0.0000
vn -0.0000 0.0000 1.0000
vn 0.0000 -1.0000 0.0000
vn -0.0000 1.0000 0.0000
vn 0.0783 0.0000 -0.9969
vn 0.2335 0.0000 -0.9724
vn 0.3827 0.0000 -0.9239
vn 0.5226 0.0000 -0.8526
vn 0.6496 0.0000 -0.7603
vn 0.6494 0.0000 -0.7605
vn 0.7603 0.0000 -0.6496
vn 0.8526 -0.0000 -0.5226
vn 0.9239 0.0000 -0.3827
vn 0.9724 0.0000 -0.2335
vn 0.9969 0.0000 -0.0783
vn 0.0000 0.0000 -1.0000
vn -0.9877 0.0000 -0.1563
vn -0.9877 0.0000 -0.1566
vn -0.8910 0.0000 -0.4540
vn -0.7071 0.0000 -0.7071
vn -0.4540 0.0000 -0.8910
vn -0.1563 -0.0000 -0.9877
vn -0.1566 0.0000 -0.9877
vn -0.9877 -0.0000 -0.1565
vn -0.9877 0.0000 0.1565
vn -0.8910 -0.0000 0.4539
vn -0.7071 0.0000 0.7071
vn -0.4539 0.0000 0.8910
vn -0.1565 0.0000 0.9877
vn 0.1565 0.0000 0.9877
vn 0.4539 0.0000 0.8910
vn 0.7071 0.0000 0.7071
vn 0.8910 0.0000 0.4539
vn 0.9877 0.0000 0.1565
vn 0.9877 -0.0000 -0.1565
vn 0.8910 0.0000 -0.4539
vn 0.7071 -0.0000 -0.7071
vn 0.4539 -0.0000 -0.8910
vn 0.1565 -0.0000 -0.9877
vn -0.1565 -0.0000 -0.9877
vn -0.4539 -0.0000 -0.8910
vn -0.8910 0.0000 -0.4539
vn 0.0786 0.0000 -0.9969
vn -1.0000 0.0000 0.0000
vn 1.0000 0.0000 0.0000
vn 0.9848 -0.0000 -0.1737
vn 0.9848 0.0000 0.1737
vn 0.8659 0.0000 0.5002
vn 0.6430 0.0000 0.7659
vn 0.3417 0.0000 0.9398
vn -0.3417 0.0000 0.9398
vn -0.6430 0.0000 0.7659
vn -0.8659 0.0000 0.5002
vn -0.9848 0.0000 0.1737
vn -0.9848 -0.0000 -0.1737
vn -0.8659 0.0000 -0.5002
vn -0.6430 -0.0000 -0.7659
vn -0.3417 -0.0000 -0.9398
vn 0.3417 -0.0000 -0.9398
vn 0.6430 -0.0000 -0.7659
vn 0.8659 0.0000 -0.5002
usemtl black_metal
s 1
f 1//1 2//1 3//1
f 3//2 2//2 4//2
f 3//2 4//2 5//2
f 5//3 4//3 6//3
f 5//3 6//3 7//3
f 7//4 6//4 8//4
f 7//4 8//4 9//4
f 9//5 8//5 10//5
f 9//5 10//5 11//5
f 11//6 10//6 12//6
f 11//6 12//6 13//6
f 13//7 12//7 14//7
f 13//7 14//7 15//7
f 15//8 14//8 16//8
f 15//8 16//8 17//8
f 17//9 16//9 18//9
f 17//9 18//9 19//9
f 19//10 18//10 20//10
f 19//10 20//10 21//10
f 21//11 20//11 22//11
f 21//11 22//11 23//11
f 23//12 22//12 24//12
f 23//12 24//12 1//12
f 1//1 24//1 2//1
f 25//13 5//13 7//13
f 25//13 7//13 26//13
f 26//13 7//13 27//13
f 26//13 27//13 11//13
f 28//13 1//13 25//13
f 25//13 1//13 29//13
f 25//13 29//13 5//13
f 11//13 13//13 26//13
f 26//13 13//13 30//13
f 26//13 30//13 31//13
f 31//13 30//13 17//13
f 17//13 19//13 31//13
f 31//13 19//13 32//13
f 31//13 32//13 28//13
f 28//13 32//13 23//13
f 28//13 23//13 1//13
f 33//14 34//14 35//14
f 35//14 34//14 36//14
f 37//14 38//14 39//14
f 40//14 41//14 35//14
f 39//14 42//14 37//14
f 37//14 42//14 43//14
f 37//14 43//14 35//14
f 35//14 43//14 44//14
f 35//14 44//14 40//14
f 41//14 45//14 35//14
f 35//14 45//14 46//14
f 35//14 46//14 33//14
f 36//14 47//14 35//14
f 35//14 47//14 48//14
f 35//14 48//14 49//14
f 49//14 50//14 35//14
f 35//14 50//14 51//14
f 35//14 51//14 52//14
f 53//14 54//14 55//14
f 56//14 57//14 58//14
f 55//14 54//14 59//14
f 60//14 61//14 62//14
f 60//14 62//14 63//14
f 62//14 64//14 63//14
f 63//14 64//14 65//14
f 63//14 65//14 66//14
f 54//14 67//14 59//14
f 59//14 67//14 68//14
f 59//14 68//14 69//14
f 69//14 68//14 70//14
f 69//14 70//14 71//14
f 71//14 70//14 72//14
f 71//14 72//14 73//14
f 73//14 72//14 74//14
f 73//14 74//14 75//14
f 75//14 74//14 76//14
f 75//14 76//14 77//14
f 77//14 76//14 58//14
f 77//14 58//14 78//14
f 78//14 58//14 57//14
f 61//14 60//14 58//14
f 58//14 60//14 79//14
f 58//14 79//14 56//14
f 66//14 80//14 63//14
f 63//14 80//14 81//14
f 63//14 81//14 82//14
f 83//14 84//14 85//14
f 85//14 84//14 82//14
f 85//14 82//14 86//14
f 86//14 82//14 81//14
f 55//14 87//14 53//14
f 53//14 87//14 88//14
f 53//14 88//14 89//14
f 89//14 88//14 90//14
f 89//14 90//14 83//14
f 83//14 90//14 91//14
f 83//14 91//14 84//14
f 92//15 93//15 26//15
f 26//15 31//15 94//15
f 95//15 96//15 97//15
f 94//15 98//15 26//15
f 26//15 98//15 99//15
f 26//15 99//15 100//15
f 100//15 101//15 26//15
f 26//15 101//15 102//15
f 26//15 102//15 103//15
f 26//15 93//15 104//15
f 104//15 93//15 105//15
f 104//15 105//15 97//15
f 97//15 105//15 106//15
f 97//15 106//15 95//15
f 103//15 107//15 26//15
f 26//15 107//15 108//15
f 26//15 108//15 92//15
f 75//16 93//16 92//16
f 75//16 92//16 73//16
f 73//17 92//17 108//17
f 73//17 108//17 71//17
f 71//18 108//18 107//18
f 71//18 107//18 69//18
f 69//19 107//19 103//19
f 69//19 103//19 59//19
f 59//20 103//20 102//20
f 59//20 102//20 55//21
f 55//22 102//22 101//22
f 55//22 101//22 87//22
f 87//23 101//23 100//23
f 87//23 100//23 88//23
f 88//24 100//24 99//24
f 88//24 99//24 90//24
f 90//25 99//25 98//25
f 90//25 98//25 91//25
f 91//26 98//26 94//26
f 91//26 94//26 84//26
f 93//27 75//27 105//27
f 105//27 75//27 77//27
f 60//28 104//29 97//28
f 60//28 97//28 79//29
f 79//30 97//30 96//30
f 79//30 96//30 56//30
f 56//31 96//31 95//31
f 56//31 95//31 57//31
f 57//32 95//32 106//32
f 57//32 106//32 78//32
f 78//33 106//34 105//33
f 78//33 105//33 77//34
f 61//35 109//35 62//35
f 62//36 109//36 50//36
f 62//36 50//36 64//36
f 64//37 50//37 49//37
f 64//37 49//37 65//37
f 65//38 49//38 48//38
f 65//38 48//38 66//38
f 66//39 48//39 47//39
f 66//39 47//39 80//39
f 80//40 47//40 110//40
f 80//40 110//40 81//40
f 81//41 110//41 34//41
f 81//41 34//41 86//41
f 86//42 34//42 33//42
f 86//42 33//42 85//42
f 85//43 33//43 46//43
f 85//43 46//43 83//43
f 83//44 46//44 45//44
f 83//44 45//44 89//44
f 89//45 45//45 41//45
f 89//45 41//45 111//45
f 111//46 41//46 40//46
f 111//46 40//46 54//46
f 54//47 40//47 44//47
f 54//47 44//47 67//47
f 67//48 44//48 43//48
f 67//48 43//48 68//48
f 68//49 43//49 42//49
f 68//49 42//49 70//49
f 70//50 42//50 112//50
f 70//50 112//50 72//50
f 72//51 112//51 38//51
f 72//51 38//51 74//51
f 74//52 38//52 37//52
f 74//52 37//52 76//52
f 76//31 37//31 35//31
f 76//31 35//31 58//31
f 58//53 35//53 52//53
f 58//53 52//53 61//53
f 61//35 52//35 109//35
f 113//27 22//27 114//27
f 113//27 114//27 82//27
f 6//27 4//27 115//27
f 115//27 4//27 116//27
f 115//27 116//27 113//27
f 113//27 116//27 24//27
f 113//27 24//27 22//27
f 114//27 18//27 82//27
f 82//27 18//27 16//27
f 82//27 16//27 63//27
f 63//27 16//27 14//27
f 14//27 12//27 63//27
f 63//27 12//27 10//27
f 63//27 10//27 115//27
f 115//27 10//27 117//27
f 115//27 117//27 6//27
f 118//15 119//15 113//15
f 113//15 119//15 115//15
f 120//15 121//15 122//15
f 123//15 124//15 125//15
f 125//15 126//15 123//15
f 123//15 126//15 127//15
f 123//15 127//15 128//15
f 129//15 120//15 130//15
f 130//15 120//15 122//15
f 130//15 122//15 123//15
f 123//15 122//15 131//15
f 131//15 132//15 123//15
f 123//15 132//15 133//15
f 123//15 133//15 124//15
f 134//15 135//15 136//15
f 136//15 135//15 123//15
f 136//15 123//15 137//15
f 137//15 123//15 128//15
f 138//14 28//14 25//14
f 139//14 25//14 140//14
f 138//14 25//14 141//14
f 139//14 142//14 25//14
f 25//14 142//14 143//14
f 25//14 143//14 144//14
f 145//14 146//14 147//14
f 147//14 146//14 148//14
f 147//14 148//14 140//14
f 140//14 148//14 149//14
f 140//14 149//14 139//14
f 144//14 150//14 25//14
f 25//14 150//14 151//14
f 25//14 151//14 152//14
f 152//14 153//14 25//14
f 25//14 153//14 154//14
f 25//14 154//14 141//14
f 155//15 156//15 157//15
f 157//15 156//15 158//15
f 157//15 158//15 159//15
f 157//15 160//15 155//15
f 155//15 160//15 161//15
f 155//15 161//15 162//15
f 162//15 161//15 163//15
f 162//15 163//15 164//15
f 164//15 165//15 162//15
f 162//15 165//15 166//15
f 162//15 166//15 167//15
f 168//15 169//15 170//15
f 166//15 171//15 167//15
f 167//15 171//15 172//15
f 167//15 172//15 173//15
f 173//15 172//15 168//15
f 173//15 168//15 174//15
f 174//15 168//15 170//15
f 158//15 175//15 159//15
f 159//15 175//15 176//15
f 159//15 176//15 177//15
f 177//15 176//15 178//15
f 177//15 178//15 179//15
f 179//15 178//15 180//15
f 179//15 180//15 181//15
f 181//15 180//15 182//15
f 181//15 182//15 183//15
f 183//15 182//15 184//15
f 183//15 184//15 185//15
f 185//15 184//15 186//15
f 185//15 186//15 187//15
f 187//15 186//15 188//15
f 187//15 188//15 189//15
f 189//15 188//15 190//15
f 189//15 190//15 168//15
f 168//15 190//15 191//15
f 168//15 191//15 169//15
f 139//54 190//16 188//54
f 139//54 188//54 142//16
f 142//17 188//17 186//17
f 142//17 186//17 143//17
f 143//18 186//18 184//18
f 143//18 184//18 144//18
f 144//19 184//19 182//19
f 144//19 182//19 150//19
f 150//20 182//20 180//20
f 150//20 180//20 151//21
f 151//22 180//22 178//22
f 151//22 178//22 152//22
f 152//23 178//23 176//23
f 152//23 176//23 153//23
f 153//24 176//24 175//24
f 153//24 175//24 154//24
f 154//25 175//25 158//25
f 154//25 158//25 141//25
f 141//26 158//26 156//26
f 141//26 156//26 138//26
f 140//28 167//29 173//28
f 140//28 173//28 147//29
f 147//30 173//30 174//30
f 147//30 174//30 145//30
f 145//31 174//31 170//31
f 145//31 170//31 146//31
f 146//32 170//32 169//32
f 146//32 169//32 148//32
f 148//33 169//33 191//33
f 148//33 191//33 149//34
f 115//55 25//55 63//55
f 63//55 25//55 26//55
f 63//55 26//55 60//55
f 60//55 26//55 104//55
f 167//55 140//55 162//55
f 162//55 140//55 25//55
f 162//55 25//55 119//55
f 119//55 25//55 115//55
f 119//27 118//27 162//27
f 162//27 118//27 155//27
f 138//56 156//56 28//56
f 28//56 156//56 155//56
f 84//56 94//56 82//56
f 82//56 94//56 31//56
f 82//56 31//56 113//56
f 113//56 31//56 28//56
f 113//56 28//56 118//56
f 118//56 28//56 155//56
f 149//27 191//27 139//27
f 139//27 191//27 190//27
f 179//57 192//57 193//57
f 193//58 192//58 130//58
f 193//58 130//58 159//58
f 159//59 130//59 123//59
f 159//59 123//59 157//59
f 157//60 123//60 135//60
f 157//60 135//60 160//60
f 160//61 135//61 134//61
f 160//61 134//61 161//61
f 161//13 134//13 136//13
f 161//13 136//13 163//13
f 163//62 136//62 137//62
f 163//62 137//62 164//62
f 164//63 137//63 128//63
f 164//63 128//63 165//63
f 165//64 128//64 127//64
f 165//64 127//64 166//64
f 166//65 127//65 126//65
f 166//65 126//65 194//65
f 194//66 126//66 125//66
f 194//66 125//66 172//66
f 172//67 125//67 124//67
f 172//67 124//67 168//67
f 168//68 124//68 133//68
f 168//68 133//68 189//68
f 189//69 133//69 132//69
f 189//69 132//69 187//69
f 187//27 132//27 131//27
f 187//27 131//27 185//27
f 185//70 131//70 122//70
f 185//70 122//70 183//70
f 183//71 122//71 121//71
f 183//71 121//71 181//71
f 181//72 121//72 120//72
f 181//72 120//72 179//72
f 179//57 120//57 192//57
