<svg xmlns="http://www.w3.org/2000/svg" width="96" height="96" viewBox="0 0 96 96" fill="none">
<g clip-path="url(#clip0_8544_12867)">
<g clip-path="url(#clip1_8544_12867)">
<path fill-rule="evenodd" clip-rule="evenodd" d="M12 0L0 12V84L12 96H35.3083L17.6031 78.65L17.6031 54.7884L31.7568 41.5134L36.0069 18.2751L62 10.1962L70.9999 25.7845L50.2031 30.8634L49.298 44.896L62.2489 51.7274L77.0458 36.2562L85.925 51.6355L65.9319 70.1067L43.6526 62.1176L39.4584 65.15V70.1067L64.9193 96H84L96 84V12L84 0H12Z" fill="#1D1D1E"/>
<path d="M36.0069 18.2751L62 10.1962L70.9999 25.7845L50.2031 30.8634L49.298 44.896L62.2489 51.7274L77.0458 36.2562L85.925 51.6355L65.9319 70.1067L43.6526 62.1176L39.4584 65.15L39.4584 70.1067L65.5584 96.65L68.5584 117.35L47.4069 117.35L35.7084 96.3921L17.6031 78.65L17.6031 54.7884L31.7568 41.5134L36.0069 18.2751Z" fill="white"/>
</g>
</g>
<defs>
<clipPath id="clip0_8544_12867">
<rect width="96" height="96" fill="white"/>
</clipPath>
<clipPath id="clip1_8544_12867">
<rect width="96" height="96" fill="white"/>
</clipPath>
</defs>
</svg>