<svg width="396" height="63" viewBox="0 0 396 63" fill="none" xmlns="http://www.w3.org/2000/svg">
<path d="M366.453 8.18066H376.377L382.704 11.9105V47.6767L384.636 50.5406H395.959V58.0002H380.706L374.712 49.1419V15.6403H366.453V8.18066Z" fill="black"/>
<path d="M338.506 8.18066H348.43L354.757 11.9105V47.6767L356.689 50.5406H368.011V58.0002H352.759L346.765 49.1419V15.6403H338.506V8.18066Z" fill="black"/>
<path d="M312.09 20.0357H323.279L329.207 28.8274V50.74H341.395V57.9998H309.292V50.74H321.481V30.2261L319.483 27.2955H312.09V20.0357ZM320.682 12.7093H330.006V3.38477H320.682V12.7093Z" fill="black"/>
<path d="M272.021 8.18066H280.08V31.7584L292.201 19.1703H302.791L291.069 31.0257L304.19 50.474V58.0002H296.131V51.8727L285.674 36.6204L280.08 42.415V58.0002H272.021V8.18066Z" fill="black"/>
<path d="M239.678 11.377H259.858L264.454 18.3037L258.993 23.632L255.796 18.9032H242.808L241.609 20.1686V27.9613L243.607 30.8918H260.458L265.786 38.9509V52.3382L260.325 57.9995H237.08L233.15 52.4048L238.412 46.9433L241.01 50.4733H256.995L257.727 49.8739V40.283L256.395 38.4181H239.544L233.55 29.4932V17.7709L239.678 11.377Z" fill="black"/>
<path d="M197.61 20.0357H208.799L214.727 28.8274V50.74H226.915V57.9998H194.812V50.74H207.001V30.2261L205.003 27.2955H197.61V20.0357ZM206.202 12.7093H215.526V3.38477H206.202V12.7093Z" fill="black"/>
<path d="M156.208 21.3018H164.268V23.4997L167.931 21.3018H182.384L188.378 30.1601V58.0004H180.319V31.6253L178.388 28.7614H165.466L164.268 30.1601V58.0004H156.208V21.3018Z" fill="black"/>
<path d="M122.866 21.168H145.112L149.774 28.0282V57.9998H141.715V55.8019L138.052 57.9998H123.532L117.538 49.0749V45.5449L128.261 34.3555H141.715V28.561H122.866V21.168ZM125.863 47.6096L127.129 50.4736H141.448V41.9483H131.258L125.863 47.4764V47.6096Z" fill="black"/>
<path d="M79 11.377H87.059V12.1096L94.0524 22.5664L103.111 11.377H111.17V57.9995H103.111V22.2334L97.8488 28.4275V32.6235H92.0543V31.5579L87.059 24.0983V57.9995H79V11.377Z" fill="black"/>
<path fill-rule="evenodd" clip-rule="evenodd" d="M7.875 0L0 7.875V55.125L7.875 63H23.763L23.7235 62.9292L11.8418 51.2859L11.8418 35.6268L21.1302 26.915L23.9193 11.6649L40.9773 6.3631L46.8835 16.5929L33.2356 19.926L32.6417 29.1349L41.1407 33.618L50.8511 23.465L56.6781 33.5577L43.5576 45.6794L28.9369 40.4365L26.1844 42.4266L26.1844 45.6794L43.2157 63H55.125L63 55.125V7.875L55.125 0H7.875Z" fill="black"/>
</svg>
