# Blender 4.3.0
# www.blender.org
mtllib test.mtl
o BoxesOBJ
v -1.000000 -1.500000 1.000000
v -1.000000 -1.500000 1.000000
v -1.000000 -1.500000 1.000000
v -0.500000 -1.500000 1.000000
v -0.500000 -1.500000 1.000000
v 0.000000 -1.500000 1.000000
v 0.000000 -1.500000 1.000000
v 0.500000 -1.500000 1.000000
v 0.500000 -1.500000 1.000000
v 1.000000 -1.500000 1.000000
v 1.000000 -1.500000 1.000000
v 1.000000 -1.500000 1.000000
v -1.000000 -0.750000 1.000000
v -1.000000 -0.750000 1.000000
v -0.500000 -0.750000 1.000000
v 0.000000 -0.750000 1.000000
v 0.500000 -0.750000 1.000000
v 1.000000 -0.750000 1.000000
v 1.000000 -0.750000 1.000000
v -1.000000 -0.000000 1.000000
v -1.000000 -0.000000 1.000000
v -0.500000 -0.000000 1.000000
v 0.000000 -0.000000 1.000000
v 0.500000 -0.000000 1.000000
v 1.000000 -0.000000 1.000000
v 1.000000 -0.000000 1.000000
v -1.000000 0.750000 1.000000
v -1.000000 0.750000 1.000000
v -0.500000 0.750000 1.000000
v 0.000000 0.750000 1.000000
v 0.500000 0.750000 1.000000
v 1.000000 0.750000 1.000000
v 1.000000 0.750000 1.000000
v -1.000000 1.500000 1.000000
v -1.000000 1.500000 1.000000
v -1.000000 1.500000 1.000000
v -0.500000 1.500000 1.000000
v -0.500000 1.500000 1.000000
v 0.000000 1.500000 1.000000
v 0.000000 1.500000 1.000000
v 0.500000 1.500000 1.000000
v 0.500000 1.500000 1.000000
v 1.000000 1.500000 1.000000
v 1.000000 1.500000 1.000000
v 1.000000 1.500000 1.000000
v -1.000000 1.500000 0.500000
v -1.000000 1.500000 0.500000
v -0.500000 1.500000 0.500000
v 0.000000 1.500000 0.500000
v 0.500000 1.500000 0.500000
v 1.000000 1.500000 0.500000
v 1.000000 1.500000 0.500000
v -1.000000 1.500000 0.000000
v -1.000000 1.500000 0.000000
v -0.500000 1.500000 0.000000
v 0.000000 1.500000 0.000000
v 0.500000 1.500000 0.000000
v 1.000000 1.500000 0.000000
v 1.000000 1.500000 0.000000
v -1.000000 1.500000 -0.500000
v -1.000000 1.500000 -0.500000
v -0.500000 1.500000 -0.500000
v 0.000000 1.500000 -0.500000
v 0.500000 1.500000 -0.500000
v 1.000000 1.500000 -0.500000
v 1.000000 1.500000 -0.500000
v -1.000000 1.500000 -1.000000
v -1.000000 1.500000 -1.000000
v -1.000000 1.500000 -1.000000
v -0.500000 1.500000 -1.000000
v -0.500000 1.500000 -1.000000
v 0.000000 1.500000 -1.000000
v 0.000000 1.500000 -1.000000
v 0.500000 1.500000 -1.000000
v 0.500000 1.500000 -1.000000
v 1.000000 1.500000 -1.000000
v 1.000000 1.500000 -1.000000
v 1.000000 1.500000 -1.000000
v -1.000000 0.750000 -1.000000
v -1.000000 0.750000 -1.000000
v -0.500000 0.750000 -1.000000
v 0.000000 0.750000 -1.000000
v 0.500000 0.750000 -1.000000
v 1.000000 0.750000 -1.000000
v 1.000000 0.750000 -1.000000
v -1.000000 -0.000000 -1.000000
v -1.000000 -0.000000 -1.000000
v -0.500000 -0.000000 -1.000000
v 0.000000 -0.000000 -1.000000
v 0.500000 -0.000000 -1.000000
v 1.000000 -0.000000 -1.000000
v 1.000000 -0.000000 -1.000000
v -1.000000 -0.750000 -1.000000
v -1.000000 -0.750000 -1.000000
v -0.500000 -0.750000 -1.000000
v 0.000000 -0.750000 -1.000000
v 0.500000 -0.750000 -1.000000
v 1.000000 -0.750000 -1.000000
v 1.000000 -0.750000 -1.000000
v -1.000000 -1.500000 -1.000000
v -1.000000 -1.500000 -1.000000
v -1.000000 -1.500000 -1.000000
v -0.500000 -1.500000 -1.000000
v -0.500000 -1.500000 -1.000000
v 0.000000 -1.500000 -1.000000
v 0.000000 -1.500000 -1.000000
v 0.500000 -1.500000 -1.000000
v 0.500000 -1.500000 -1.000000
v 1.000000 -1.500000 -1.000000
v 1.000000 -1.500000 -1.000000
v 1.000000 -1.500000 -1.000000
v -1.000000 -1.500000 -0.500000
v -1.000000 -1.500000 -0.500000
v -0.500000 -1.500000 -0.500000
v 0.000000 -1.500000 -0.500000
v 0.500000 -1.500000 -0.500000
v 1.000000 -1.500000 -0.500000
v 1.000000 -1.500000 -0.500000
v -1.000000 -1.500000 -0.000000
v -1.000000 -1.500000 -0.000000
v -0.500000 -1.500000 -0.000000
v 0.000000 -1.500000 -0.000000
v 0.500000 -1.500000 -0.000000
v 1.000000 -1.500000 -0.000000
v 1.000000 -1.500000 -0.000000
v -1.000000 -1.500000 0.500000
v -1.000000 -1.500000 0.500000
v -0.500000 -1.500000 0.500000
v 0.000000 -1.500000 0.500000
v 0.500000 -1.500000 0.500000
v 1.000000 -1.500000 0.500000
v 1.000000 -1.500000 0.500000
v 1.000000 -0.750000 -0.500000
v 1.000000 -0.750000 0.000000
v 1.000000 -0.750000 0.500000
v 1.000000 -0.000000 -0.500000
v 1.000000 -0.000000 0.000000
v 1.000000 -0.000000 0.500000
v 1.000000 0.750000 -0.500000
v 1.000000 0.750000 0.000000
v 1.000000 0.750000 0.500000
v -1.000000 -0.750000 -0.500000
v -1.000000 -0.750000 0.000000
v -1.000000 -0.750000 0.500000
v -1.000000 -0.000000 -0.500000
v -1.000000 -0.000000 0.000000
v -1.000000 -0.000000 0.500000
v -1.000000 0.750000 -0.500000
v -1.000000 0.750000 0.000000
v -1.000000 0.750000 0.500000
vn -0.0000 -0.0000 1.0000
vn -0.0000 1.0000 -0.0000
vn -0.0000 -0.0000 -1.0000
vn -0.0000 -1.0000 -0.0000
vn 1.0000 -0.0000 -0.0000
vn -1.0000 -0.0000 -0.0000
vt 0.680797 0.741348
vt 0.680804 0.802154
vt 0.589586 0.802165
vt 0.589587 0.741344
vt 0.680811 0.862962
vt 0.589590 0.862981
vt 0.680817 0.923770
vt 0.589594 0.923799
vt 0.680835 0.984581
vt 0.589606 0.984613
vt 0.498372 0.802163
vt 0.498374 0.741342
vt 0.498371 0.862983
vt 0.498368 0.923804
vt 0.498367 0.984622
vt 0.407159 0.802160
vt 0.407162 0.741340
vt 0.407152 0.862977
vt 0.407143 0.923796
vt 0.407128 0.984611
vt 0.315940 0.802146
vt 0.315951 0.741342
vt 0.315931 0.862953
vt 0.315923 0.923760
vt 0.315895 0.984569
vt 0.255154 0.741368
vt 0.255135 0.680553
vt 0.315943 0.680534
vt 0.194353 0.741389
vt 0.194327 0.680574
vt 0.133551 0.741419
vt 0.133517 0.680603
vt 0.072740 0.741459
vt 0.072704 0.680644
vt 0.255120 0.619736
vt 0.315934 0.619721
vt 0.194304 0.619759
vt 0.133488 0.619790
vt 0.072674 0.619828
vt 0.255101 0.558921
vt 0.315923 0.558902
vt 0.194280 0.558944
vt 0.133462 0.558975
vt 0.072643 0.559014
vt 0.255082 0.498107
vt 0.315914 0.498083
vt 0.194254 0.498128
vt 0.133426 0.498160
vt 0.072607 0.498200
vt 0.315929 0.437264
vt 0.407153 0.437274
vt 0.407147 0.498084
vt 0.315933 0.376451
vt 0.407157 0.376461
vt 0.315934 0.315640
vt 0.407157 0.315644
vt 0.315932 0.254828
vt 0.407153 0.254827
vt 0.498383 0.437272
vt 0.498379 0.498081
vt 0.498380 0.376459
vt 0.498378 0.315643
vt 0.498376 0.254827
vt 0.589610 0.437272
vt 0.589612 0.498085
vt 0.589605 0.376453
vt 0.589601 0.315638
vt 0.589598 0.254821
vt 0.680833 0.437261
vt 0.680845 0.498085
vt 0.680826 0.376443
vt 0.680824 0.315626
vt 0.680820 0.254812
vt 0.741677 0.498110
vt 0.741655 0.558925
vt 0.680835 0.558909
vt 0.802508 0.498134
vt 0.802476 0.558952
vt 0.863334 0.498171
vt 0.863297 0.558986
vt 0.924154 0.498214
vt 0.924113 0.559027
vt 0.741634 0.619741
vt 0.680818 0.619726
vt 0.802449 0.619766
vt 0.863266 0.619801
vt 0.924079 0.619844
vt 0.741615 0.680556
vt 0.680806 0.680538
vt 0.802422 0.680580
vt 0.863231 0.680614
vt 0.924045 0.680660
vt 0.741592 0.741371
vt 0.802390 0.741395
vt 0.863192 0.741430
vt 0.924002 0.741477
vt 0.680820 0.193999
vt 0.589597 0.194006
vt 0.680817 0.133184
vt 0.589596 0.133191
vt 0.680817 0.072371
vt 0.589595 0.072373
vt 0.680815 0.011556
vt 0.589592 0.011558
vt 0.498374 0.194011
vt 0.498373 0.133196
vt 0.498373 0.072380
vt 0.498371 0.011565
vt 0.407152 0.194012
vt 0.407150 0.133197
vt 0.407150 0.072379
vt 0.407149 0.011564
vt 0.315930 0.194012
vt 0.315930 0.133197
vt 0.315929 0.072380
vt 0.315929 0.011564
vt 0.589607 0.558896
vt 0.589598 0.619709
vt 0.589590 0.680527
vt 0.498378 0.558890
vt 0.498375 0.619704
vt 0.498375 0.680523
vt 0.407149 0.558896
vt 0.407154 0.619708
vt 0.407160 0.680524
s 0
usemtl blinn1SG.001
f 2/1/1 5/2/1 15/3/1
f 2/1/1 15/3/1 13/4/1
f 5/2/1 7/5/1 16/6/1
f 5/2/1 16/6/1 15/3/1
f 7/5/1 9/7/1 17/8/1
f 7/5/1 17/8/1 16/6/1
f 9/7/1 11/9/1 18/10/1
f 9/7/1 18/10/1 17/8/1
f 13/4/1 15/3/1 22/11/1
f 13/4/1 22/11/1 20/12/1
f 15/3/1 16/6/1 23/13/1
f 15/3/1 23/13/1 22/11/1
f 16/6/1 17/8/1 24/14/1
f 16/6/1 24/14/1 23/13/1
f 17/8/1 18/10/1 25/15/1
f 17/8/1 25/15/1 24/14/1
f 20/12/1 22/11/1 29/16/1
f 20/12/1 29/16/1 27/17/1
f 22/11/1 23/13/1 30/18/1
f 22/11/1 30/18/1 29/16/1
f 23/13/1 24/14/1 31/19/1
f 23/13/1 31/19/1 30/18/1
f 24/14/1 25/15/1 32/20/1
f 24/14/1 32/20/1 31/19/1
f 27/17/1 29/16/1 38/21/1
f 27/17/1 38/21/1 35/22/1
f 29/16/1 30/18/1 40/23/1
f 29/16/1 40/23/1 38/21/1
f 30/18/1 31/19/1 42/24/1
f 30/18/1 42/24/1 40/23/1
f 31/19/1 32/20/1 44/25/1
f 31/19/1 44/25/1 42/24/1
f 34/22/2 37/26/2 48/27/2
f 34/22/2 48/27/2 46/28/2
f 37/26/2 39/29/2 49/30/2
f 37/26/2 49/30/2 48/27/2
f 39/29/2 41/31/2 50/32/2
f 39/29/2 50/32/2 49/30/2
f 41/31/2 43/33/2 51/34/2
f 41/31/2 51/34/2 50/32/2
f 46/28/2 48/27/2 55/35/2
f 46/28/2 55/35/2 53/36/2
f 48/27/2 49/30/2 56/37/2
f 48/27/2 56/37/2 55/35/2
f 49/30/2 50/32/2 57/38/2
f 49/30/2 57/38/2 56/37/2
f 50/32/2 51/34/2 58/39/2
f 50/32/2 58/39/2 57/38/2
f 53/36/2 55/35/2 62/40/2
f 53/36/2 62/40/2 60/41/2
f 55/35/2 56/37/2 63/42/2
f 55/35/2 63/42/2 62/40/2
f 56/37/2 57/38/2 64/43/2
f 56/37/2 64/43/2 63/42/2
f 57/38/2 58/39/2 65/44/2
f 57/38/2 65/44/2 64/43/2
f 60/41/2 62/40/2 70/45/2
f 60/41/2 70/45/2 67/46/2
f 62/40/2 63/42/2 72/47/2
f 62/40/2 72/47/2 70/45/2
f 63/42/2 64/43/2 74/48/2
f 63/42/2 74/48/2 72/47/2
f 64/43/2 65/44/2 76/49/2
f 64/43/2 76/49/2 74/48/2
f 68/46/3 71/50/3 81/51/3
f 68/46/3 81/51/3 79/52/3
f 71/50/3 73/53/3 82/54/3
f 71/50/3 82/54/3 81/51/3
f 73/53/3 75/55/3 83/56/3
f 73/53/3 83/56/3 82/54/3
f 75/55/3 77/57/3 84/58/3
f 75/55/3 84/58/3 83/56/3
f 79/52/3 81/51/3 88/59/3
f 79/52/3 88/59/3 86/60/3
f 81/51/3 82/54/3 89/61/3
f 81/51/3 89/61/3 88/59/3
f 82/54/3 83/56/3 90/62/3
f 82/54/3 90/62/3 89/61/3
f 83/56/3 84/58/3 91/63/3
f 83/56/3 91/63/3 90/62/3
f 86/60/3 88/59/3 95/64/3
f 86/60/3 95/64/3 93/65/3
f 88/59/3 89/61/3 96/66/3
f 88/59/3 96/66/3 95/64/3
f 89/61/3 90/62/3 97/67/3
f 89/61/3 97/67/3 96/66/3
f 90/62/3 91/63/3 98/68/3
f 90/62/3 98/68/3 97/67/3
f 93/65/3 95/64/3 104/69/3
f 93/65/3 104/69/3 101/70/3
f 95/64/3 96/66/3 106/71/3
f 95/64/3 106/71/3 104/69/3
f 96/66/3 97/67/3 108/72/3
f 96/66/3 108/72/3 106/71/3
f 97/67/3 98/68/3 110/73/3
f 97/67/3 110/73/3 108/72/3
f 100/70/4 103/74/4 114/75/4
f 100/70/4 114/75/4 112/76/4
f 103/74/4 105/77/4 115/78/4
f 103/74/4 115/78/4 114/75/4
f 105/77/4 107/79/4 116/80/4
f 105/77/4 116/80/4 115/78/4
f 107/79/4 109/81/4 117/82/4
f 107/79/4 117/82/4 116/80/4
f 112/76/4 114/75/4 121/83/4
f 112/76/4 121/83/4 119/84/4
f 114/75/4 115/78/4 122/85/4
f 114/75/4 122/85/4 121/83/4
f 115/78/4 116/80/4 123/86/4
f 115/78/4 123/86/4 122/85/4
f 116/80/4 117/82/4 124/87/4
f 116/80/4 124/87/4 123/86/4
f 119/84/4 121/83/4 128/88/4
f 119/84/4 128/88/4 126/89/4
f 121/83/4 122/85/4 129/90/4
f 121/83/4 129/90/4 128/88/4
f 122/85/4 123/86/4 130/91/4
f 122/85/4 130/91/4 129/90/4
f 123/86/4 124/87/4 131/92/4
f 123/86/4 131/92/4 130/91/4
f 126/89/4 128/88/4 4/93/4
f 126/89/4 4/93/4 1/1/4
f 128/88/4 129/90/4 6/94/4
f 128/88/4 6/94/4 4/93/4
f 129/90/4 130/91/4 8/95/4
f 129/90/4 8/95/4 6/94/4
f 130/91/4 131/92/4 10/96/4
f 130/91/4 10/96/4 8/95/4
f 118/97/5 111/73/5 99/68/5
f 118/97/5 99/68/5 133/98/5
f 125/99/5 118/97/5 133/98/5
f 125/99/5 133/98/5 134/100/5
f 132/101/5 125/99/5 134/100/5
f 132/101/5 134/100/5 135/102/5
f 12/103/5 132/101/5 135/102/5
f 12/103/5 135/102/5 19/104/5
f 133/98/5 99/68/5 92/63/5
f 133/98/5 92/63/5 136/105/5
f 134/100/5 133/98/5 136/105/5
f 134/100/5 136/105/5 137/106/5
f 135/102/5 134/100/5 137/106/5
f 135/102/5 137/106/5 138/107/5
f 19/104/5 135/102/5 138/107/5
f 19/104/5 138/107/5 26/108/5
f 136/105/5 92/63/5 85/58/5
f 136/105/5 85/58/5 139/109/5
f 137/106/5 136/105/5 139/109/5
f 137/106/5 139/109/5 140/110/5
f 138/107/5 137/106/5 140/110/5
f 138/107/5 140/110/5 141/111/5
f 26/108/5 138/107/5 141/111/5
f 26/108/5 141/111/5 33/112/5
f 139/109/5 85/58/5 78/57/5
f 139/109/5 78/57/5 66/113/5
f 140/110/5 139/109/5 66/113/5
f 140/110/5 66/113/5 59/114/5
f 141/111/5 140/110/5 59/114/5
f 141/111/5 59/114/5 52/115/5
f 33/112/5 141/111/5 52/115/5
f 33/112/5 52/115/5 45/116/5
f 102/70/6 113/76/6 142/117/6
f 102/70/6 142/117/6 94/65/6
f 113/76/6 120/84/6 143/118/6
f 113/76/6 143/118/6 142/117/6
f 120/84/6 127/89/6 144/119/6
f 120/84/6 144/119/6 143/118/6
f 127/89/6 3/1/6 14/4/6
f 127/89/6 14/4/6 144/119/6
f 94/65/6 142/117/6 145/120/6
f 94/65/6 145/120/6 87/60/6
f 142/117/6 143/118/6 146/121/6
f 142/117/6 146/121/6 145/120/6
f 143/118/6 144/119/6 147/122/6
f 143/118/6 147/122/6 146/121/6
f 144/119/6 14/4/6 21/12/6
f 144/119/6 21/12/6 147/122/6
f 87/60/6 145/120/6 148/123/6
f 87/60/6 148/123/6 80/52/6
f 145/120/6 146/121/6 149/124/6
f 145/120/6 149/124/6 148/123/6
f 146/121/6 147/122/6 150/125/6
f 146/121/6 150/125/6 149/124/6
f 147/122/6 21/12/6 28/17/6
f 147/122/6 28/17/6 150/125/6
f 80/52/6 148/123/6 61/41/6
f 80/52/6 61/41/6 69/46/6
f 148/123/6 149/124/6 54/36/6
f 148/123/6 54/36/6 61/41/6
f 149/124/6 150/125/6 47/28/6
f 149/124/6 47/28/6 54/36/6
f 150/125/6 28/17/6 36/22/6
f 150/125/6 36/22/6 47/28/6
