# Blender 4.3.0
# www.blender.org
mtllib walls.mtl
o walls
v -2.900000 2.400000 -1.400000
v -2.900000 0.000000 -1.400000
v -2.900000 2.400000 1.400000
v -2.900000 0.000000 1.400000
v -0.100000 2.400000 -1.400000
v -0.100000 0.000000 -1.400000
v -0.100000 2.400000 1.400000
v -0.100000 0.000000 1.400000
v -3.000000 2.400000 1.500000
v 0.000000 2.400000 1.500000
v -3.000000 2.400000 -1.500000
v 0.000000 2.400000 -1.500000
v 0.000000 0.000000 -1.500000
v 0.000000 0.000000 1.500000
v -3.000000 0.000000 -1.500000
v -3.000000 0.000000 1.500000
v -3.000000 2.400000 0.800000
v -3.000000 0.000000 0.800000
v -2.900000 2.400000 0.800000
v -2.900000 0.000000 0.800000
v -3.000000 2.400000 -0.800000
v -3.000000 0.000000 -0.800000
v -2.900000 2.400000 -0.800000
v -2.900000 0.000000 -0.800000
v -3.000000 0.400000 0.800000
v -2.900000 0.400000 0.800000
v -3.000000 0.400000 -0.800000
v -2.900000 0.400000 -0.800000
v -3.000000 2.000000 0.800000
v -2.900000 2.000000 0.800000
v -3.000000 2.000000 -0.800000
v -2.900000 2.000000 -0.800000
vn -0.0000 -0.0000 1.0000
vn -0.0000 -0.0000 -1.0000
vn -1.0000 -0.0000 -0.0000
vn 1.0000 -0.0000 -0.0000
vn -0.0000 -1.0000 -0.0000
vn -0.0000 1.0000 -0.0000
vt 0.129167 0.508333
vt 0.870833 0.508333
vt 0.629167 0.508333
vt 0.370833 0.508333
vt 0.375000 0.750000
vt 0.625000 0.750000
vt 0.625000 1.000000
vt 0.375000 1.000000
vt 0.375000 0.000000
vt 0.625000 0.000000
vt 0.625000 0.250000
vt 0.375000 0.250000
vt 0.129167 0.741667
vt 0.870833 0.741667
vt 0.375000 0.625000
vt 0.625000 0.625000
vt 0.625000 0.500000
vt 0.375000 0.500000
vt 0.629167 0.741667
vt 0.875000 0.750000
vt 0.629167 0.625000
vt 0.875000 0.500000
vt 0.125000 0.750000
vt 0.125000 0.500000
vt 0.370833 0.741667
vt 0.370833 0.625000
vt 0.000000 0.000000
s 0
usemtl Material
f 6/1/1 5/2/1 1/3/1 2/4/1
f 16/5/2 9/6/2 10/7/2 14/8/2
f 14/9/3 10/10/3 12/11/3 13/12/3
f 8/13/3 7/14/3 5/2/3 6/1/3
f 18/15/4 17/16/4 9/6/4 16/5/4
f 13/12/1 12/11/1 11/17/1 15/18/1
f 3/19/5 7/14/5 10/20/5 9/6/5
f 19/21/5 3/19/5 9/6/5 17/16/5
f 7/14/5 5/2/5 12/22/5 10/20/5
f 5/2/5 1/3/5 11/17/5 12/22/5
f 6/1/6 8/13/6 14/23/6 13/24/6
f 2/4/6 6/1/6 13/24/6 15/18/6
f 8/13/6 4/25/6 16/5/6 14/23/6
f 20/26/6 2/4/6 15/18/6 18/15/6
f 20/26/4 19/21/4 3/19/4 4/25/4
f 4/25/2 3/19/2 7/14/2 8/13/2
f 1/3/4 23/27/4 24/27/4 2/4/4
f 4/25/6 20/26/6 18/15/6 16/5/6
f 1/3/5 19/21/5 17/16/5 11/17/5
f 15/18/4 11/17/4 21/27/4 22/27/4
f 19/21/2 26/27/2 20/26/2 18/15/2 25/27/2 17/16/2
f 24/27/1 23/27/1 21/27/1 22/27/1
f 29/27/5 31/27/5 32/27/5 30/27/5
f 21/27/4 17/27/4 29/27/4 31/27/4
f 19/27/4 30/27/4 32/27/4 23/27/4
f 20/26/4 24/27/4 28/27/4 26/27/4
f 22/27/4 27/27/4 25/27/4 18/15/4
f 25/27/6 26/27/6 28/27/6 27/27/6
f 19/27/3 1/3/3 23/27/3
o roof
v -2.900000 2.400000 -1.400000
v -2.900000 2.400000 1.400000
v -0.100000 2.400000 -1.400000
v -0.100000 2.400000 1.400000
v -2.900000 2.400000 0.800000
v -2.900000 2.400000 -0.800000
vn -0.0000 -1.0000 -0.0000
vt 0.870833 0.508333
vt 0.870833 0.741667
vt 0.629167 0.741667
vt 0.629167 0.625000
vt 0.000000 0.000000
vt 0.629167 0.508333
s 0
usemtl Material
f 35/28/7 36/29/7 34/30/7 37/31/7 38/32/7 33/33/7
o floor
v -2.900000 0.000000 -1.400000
v -2.900000 0.000000 1.400000
v -0.100000 0.000000 -1.400000
v -0.100000 0.000000 1.400000
v -2.900000 0.000000 0.800000
v -2.900000 0.000000 -0.800000
vn -0.0000 1.0000 -0.0000
vt -0.843458 -1.747237
vt -0.843458 2.747237
vt -0.378512 2.747237
vt 0.861343 2.747237
vt 1.326289 2.747237
vt 1.326288 -1.747237
s 0
usemtl laminate_floor_03
f 41/34/8 39/35/8 44/36/8 43/37/8 40/38/8 42/39/8
